<?xml version="1.0" encoding="utf-8"?>
<!-- Generator: Adobe Illustrator 23.0.2, SVG Export Plug-In . SVG Version: 6.00 Build 0)  -->
<svg version="1.1" id="Layer_1" xmlns="http://www.w3.org/2000/svg" xmlns:xlink="http://www.w3.org/1999/xlink" x="0px" y="0px"
	 viewBox="0 0 279.3 80.8" style="enable-background:new 0 0 279.3 80.8;" xml:space="preserve">
<style type="text/css">
	.st0{fill:#FFFFFF;}
</style>
<g>
	<g>
		<path class="st0" d="M46.9,70.6h1c0.1,0,0.2,0,0.2-0.1c0.1,0,0.1-0.1,0.1-0.2v-1.1c0-0.1,0-0.2-0.1-0.2s-0.2-0.1-0.2-0.1h-1
			c-0.1,0-0.2,0-0.2,0.1c-0.1,0-0.1,0.1-0.1,0.2v1.1c0,0.1,0,0.2,0.1,0.2C46.8,70.6,46.8,70.6,46.9,70.6z"/>
		<path class="st0" d="M85.7,66.9h-1.2c-0.1,0-0.1,0-0.2,0.1c0,0-0.1,0.1-0.1,0.2v7.9c0,0.2,0,0.3-0.1,0.4c-0.1,0-0.2,0-0.4,0h-0.8
			h-0.1h-0.2c0,0-0.1,0-0.2,0s-0.2,0-0.2-0.1c-0.1,0-0.2-0.1-0.2-0.1c-0.1,0-0.1-0.1-0.1-0.2s0-0.2,0-0.3s0-0.2,0-0.3v-0.8
			c0-1-0.2-1.8-0.8-2.3s-1.3-0.7-2.2-0.7c-1,0-1.7,0.2-2.2,0.8c-0.7,0.5-1,1.3-1,2.3V75c0,0.1,0,0.2,0,0.3s0,0.1-0.1,0.2
			c0,0-0.1,0.1-0.2,0.1s-0.2,0-0.2,0H75h-0.3h-0.1h-0.2c-0.1,0-0.1,0-0.2,0s-0.2,0-0.2,0c-0.1,0-0.2,0-0.2-0.1
			c-0.1,0-0.1-0.1-0.2-0.1v-3.6c0-0.1,0-0.1-0.1-0.2c0,0-0.1-0.1-0.2-0.1h-1.2c-0.1,0-0.2,0-0.2,0.1c0,0-0.1,0.1-0.1,0.2v3.4
			c0,0.1,0,0.2-0.1,0.2c0,0-0.1,0.1-0.2,0.1s-0.2,0-0.2,0c-0.1,0-0.2,0-0.2,0h-0.5h-0.1H70c-0.1,0-0.1,0-0.2,0s-0.2,0-0.3,0
			c-0.1,0-0.2,0-0.2-0.1c-0.1,0-0.1-0.1-0.2-0.1v-4c0-0.1,0-0.2-0.1-0.2c0,0-0.1-0.1-0.2-0.1h-1.2c-0.1,0-0.1,0-0.2,0.1
			c0,0-0.1,0.1-0.1,0.2v3.8c0,0.1,0,0.2-0.1,0.2c0,0-0.1,0.1-0.2,0.1s-0.2,0-0.2,0c-0.1,0-0.2,0-0.2,0h-0.1c-0.2,0-0.4,0-0.5,0
			c-0.2,0-0.3-0.1-0.3-0.2v-3.5c0-0.1,0-0.1-0.1-0.2c0,0-0.1-0.1-0.2-0.1H64c-0.1,0-0.1,0-0.2,0.1c0,0-0.1,0.1-0.1,0.2V75
			c0,0.1,0,0.2-0.1,0.2c0,0-0.1,0.1-0.2,0.1c-0.1,0-0.2,0-0.2,0c-0.1,0-0.2,0-0.2,0h-0.2c-0.1,0-0.1,0-0.2,0c-0.1,0-0.2,0-0.2,0
			c-0.1,0-0.2,0-0.2-0.1c-0.1,0-0.1-0.1-0.2-0.1v-3c0-0.1,0-0.2-0.1-0.2c0,0-0.1-0.1-0.2-0.1h-1.2c-0.1,0-0.1,0-0.2,0.1
			c0,0-0.1,0.1-0.1,0.2v2.8c0,0.2-0.1,0.3-0.2,0.4c-0.1,0.1-0.3,0.1-0.5,0.1h-0.3H59h-0.4c-0.2,0-0.5,0-0.6-0.1s-0.2-0.3-0.2-0.6V67
			c0-0.1,0-0.1-0.1-0.2c0,0-0.1-0.1-0.2-0.1h-1.2c-0.1,0-0.2,0-0.2,0.1c0,0-0.1,0.1-0.1,0.2v8.2c0,0.4,0,0.7,0.1,1
			c0.1,0.2,0.2,0.5,0.4,0.6s0.4,0.2,0.6,0.3c0.2,0,0.5,0.1,0.8,0.1h0.9H59h0.2c0.1,0,0.2,0,0.4,0s0.3,0,0.5-0.1
			c0.2,0,0.3-0.1,0.5-0.1s0.3-0.1,0.4-0.2c0.2,0.2,0.5,0.3,0.8,0.4c0.3,0,0.5,0.1,0.8,0.1h0.2c0.3,0,0.7,0,0.9-0.1s0.5-0.2,0.7-0.4
			c0.3,0.2,0.5,0.3,0.8,0.4c0.2,0.1,0.5,0.1,0.9,0.1h0.2c0.3,0,0.6,0,0.9-0.1c0.3,0,0.6-0.2,0.8-0.4c0.3,0.2,0.6,0.3,1,0.4
			s0.7,0.1,1,0.1h0h0.1h0.3c0.2,0,0.3,0,0.5,0s0.3,0,0.5-0.1c0.2,0,0.3-0.1,0.5-0.1s0.3-0.1,0.4-0.2c0.2,0.2,0.5,0.3,0.9,0.4
			c0.4,0,0.7,0.1,1,0.1h0.1h0.1h0.2c0.3,0,0.6,0,0.9-0.1s0.5-0.2,0.7-0.4c0.2,0.2,0.5,0.5,1,0.6c0.4,0.1,0.9,0.2,1.3,0.2
			c0.5,0,0.9-0.1,1.2-0.2c0.4-0.1,0.7-0.3,0.9-0.6c0.2,0.2,0.5,0.3,0.8,0.4s0.6,0.1,0.9,0.1h0.2h0.1h0.5c0.2,0,0.4,0,0.6,0
			s0.5,0,0.7,0s0.4,0,0.6,0s0.3,0,0.4-0.1c0.1,0,0.2-0.1,0.2-0.2s0.1-0.1,0.1-0.2c0-0.2,0-0.5,0-0.8s0-0.6,0-0.8v-7.9
			c0-0.1,0-0.2-0.1-0.2C85.8,67,85.8,66.9,85.7,66.9z M80,74.5c0,0.5-0.1,0.9-0.3,1.2c-0.2,0.2-0.5,0.4-1,0.4
			c-0.3,0-0.6-0.1-0.8-0.2s-0.4-0.4-0.5-0.7c0-0.2,0-0.4,0-0.6V74c0-0.5,0.1-1,0.3-1.2c0.2-0.2,0.5-0.4,1-0.4s0.8,0.1,1,0.4
			C79.9,73,80,73.5,80,74V74.5L80,74.5z"/>
		<path class="st0" d="M49.5,70.6h1c0.1,0,0.2,0,0.2-0.1c0,0,0.1-0.1,0.1-0.2v-1.1c0-0.1,0-0.2-0.1-0.2c0,0-0.1-0.1-0.2-0.1h-1
			c-0.1,0-0.2,0-0.2,0.1c-0.1,0-0.1,0.1-0.1,0.2v1.1c0,0.1,0,0.2,0.1,0.2C49.3,70.6,49.4,70.6,49.5,70.6z"/>
		<path class="st0" d="M56.5,65.6c0.3,0.1,0.5,0.2,0.7,0.2s0.4,0,0.6,0c0.2,0,0.5,0,0.7-0.1c0.2,0,0.4-0.1,0.5-0.2
			c0.1-0.1,0.1-0.2,0.1-0.2v-0.5c0-0.1,0-0.1-0.1-0.1c0,0-0.1,0-0.2,0c-0.1,0-0.2,0.1-0.2,0.1c-0.1,0-0.2,0.1-0.3,0.1s-0.2,0-0.5,0
			c-0.2,0-0.3,0-0.4,0c-0.1,0-0.2-0.1-0.4-0.1c-0.2-0.1-0.3-0.1-0.5-0.2c-0.2,0-0.3-0.1-0.5-0.1s-0.3,0-0.5,0.1s-0.3,0.2-0.4,0.4
			c-0.1,0.2-0.2,0.5-0.2,0.8c0,0.1,0,0.2,0.2,0.2h0.5c0.1,0,0.2-0.1,0.2-0.2l0.1-0.2c0-0.1,0.1-0.2,0.2-0.2c0,0,0.1,0,0.2,0
			C56.3,65.6,56.4,65.6,56.5,65.6z"/>
		<path class="st0" d="M54.1,72.5c0-0.2,0-0.5,0-0.7c0-0.1,0-0.1-0.1-0.2c0,0-0.1-0.1-0.2-0.1h-1.1c-0.1,0-0.1,0-0.2,0.1
			c0,0-0.1,0.1-0.1,0.2c0,0.7,0,1.2,0,1.8c0,0.5,0,1.1,0,1.6c0,0.2,0,0.3-0.1,0.4c-0.1,0-0.2,0-0.5,0h-4.1c-0.6,0-1.1,0-1.5-0.2
			c-0.4-0.1-0.7-0.2-0.9-0.5c-0.2-0.3-0.4-0.5-0.5-0.8c-0.1-0.3-0.1-0.7-0.1-1.1c0-0.2,0-0.6,0-1c0-0.2,0-0.3-0.2-0.3h-1
			c-0.1,0-0.2,0-0.2,0s-0.1,0.1-0.1,0.2c-0.1,0.5-0.1,1-0.1,1.5c0,0.6,0.1,1.1,0.2,1.6c0.1,0.5,0.4,0.9,0.7,1.2s0.8,0.6,1.4,0.7
			c0.6,0.2,1.3,0.2,2.2,0.2h3c0.2,0,0.5,0,0.9,0c0.3,0,0.6,0,0.9,0c0.3,0,0.6,0,0.8,0s0.4,0,0.5-0.1c0.1,0,0.2-0.1,0.2-0.2
			s0.1-0.1,0.1-0.2c0-0.2,0-0.6,0-1s0-0.9,0-1.5c0-0.2,0-0.5,0-0.7c0-0.2,0-0.4,0-0.6C54.2,72.9,54.2,72.7,54.1,72.5z"/>
		<path class="st0" d="M105.8,70.6h1.1c0.1,0,0.2,0,0.2-0.1c0,0,0.1-0.1,0.1-0.2v-1.1c0-0.1,0-0.2-0.1-0.2c0,0-0.1-0.1-0.2-0.1h-1.1
			c-0.1,0-0.2,0-0.2,0.1c-0.1,0-0.1,0.1-0.1,0.2v1.1c0,0.1,0,0.2,0.1,0.2C105.6,70.6,105.7,70.6,105.8,70.6z"/>
		<path class="st0" d="M167.1,70.6h1.1c0.1,0,0.2,0,0.2-0.1c0,0,0.1-0.1,0.1-0.2v-1.1c0-0.1,0-0.2-0.1-0.2c0,0-0.1-0.1-0.2-0.1h-1.1
			c-0.1,0-0.2,0-0.2,0.1c-0.1,0-0.1,0.1-0.1,0.2v1.1c0,0.1,0,0.2,0.1,0.2C166.9,70.6,166.9,70.6,167.1,70.6z"/>
		<path class="st0" d="M268.5,70h1c0.1,0,0.2,0,0.2-0.1c0.1,0,0.1-0.1,0.1-0.2v-1.1c0-0.1,0-0.2-0.1-0.2s-0.2-0.1-0.2-0.1h-1
			c-0.1,0-0.2,0-0.2,0.1c-0.1,0-0.1,0.1-0.1,0.2v1.1c0,0.1,0,0.2,0.1,0.2C268.3,69.9,268.4,70,268.5,70z"/>
		<path class="st0" d="M270.9,70h1c0.1,0,0.2,0,0.2-0.1c0,0,0.1-0.1,0.1-0.2v-1.1c0-0.1,0-0.2-0.1-0.2c0,0-0.1-0.1-0.2-0.1h-1
			c-0.1,0-0.2,0-0.2,0.1c-0.1,0-0.1,0.1-0.1,0.2v1.1c0,0.1,0,0.2,0.1,0.2S270.9,70,270.9,70z"/>
		<path class="st0" d="M71.9,70H73c0.1,0,0.2,0,0.2-0.1c0,0,0.1-0.1,0.1-0.2v-1.1c0-0.1,0-0.2-0.1-0.2c0,0-0.1-0.1-0.2-0.1h-1.1
			c-0.1,0-0.2,0-0.2,0.1c-0.1,0-0.1,0.1-0.1,0.2v1.1c0,0.1,0,0.2,0.1,0.2C71.7,69.9,71.8,70,71.9,70z"/>
		<path class="st0" d="M64,68h0.9c0.1,0,0.2,0,0.2-0.1c0.1,0,0.1-0.1,0.1-0.2v-0.9c0-0.1,0-0.2-0.1-0.2s-0.1-0.1-0.2-0.1H64
			c-0.1,0-0.1,0-0.2,0.1c-0.1,0-0.1,0.1-0.1,0.2v0.8c0,0.1,0,0.2,0.1,0.2C63.9,68,64,68,64,68z"/>
		<path class="st0" d="M62.7,70.1h1c0.1,0,0.2,0,0.2-0.1c0.1,0,0.1-0.1,0.1-0.2v-1c0-0.1,0-0.2-0.1-0.2s-0.2-0.1-0.2-0.1h-1
			c-0.1,0-0.2,0-0.2,0.1c-0.1,0-0.1,0.1-0.1,0.2v1c0,0.1,0,0.1,0.1,0.2C62.6,70,62.6,70.1,62.7,70.1z"/>
		<path class="st0" d="M65,68.6c-0.1,0-0.1,0.1-0.1,0.2v1c0,0.1,0,0.1,0.1,0.2c0.1,0,0.1,0.1,0.2,0.1h1c0.1,0,0.2,0,0.2-0.1
			c0,0,0.1-0.1,0.1-0.2v-1c0-0.1,0-0.2-0.1-0.2c0,0-0.1-0.1-0.2-0.1h-1C65.2,68.5,65.1,68.5,65,68.6z"/>
		<path class="st0" d="M279.2,67c0,0-0.1-0.1-0.2-0.1h-1.2c-0.1,0-0.2,0-0.2,0.1c0,0-0.1,0.1-0.1,0.2V77c0,0.1,0,0.1,0.1,0.2
			c0,0,0.1,0.1,0.2,0.1h1.2c0.1,0,0.2,0,0.2-0.1c0,0,0.1-0.1,0.1-0.2v-9.8C279.3,67.1,279.3,67.1,279.2,67z"/>
		<path class="st0" d="M236.9,66.9h-1.2c-0.1,0-0.2,0-0.2,0.1c0,0-0.1,0.1-0.1,0.2V77c0,0.1,0,0.1,0.1,0.2c0,0,0.1,0.1,0.2,0.1h1.2
			c0.1,0,0.2,0,0.2-0.1c0,0,0.1-0.1,0.1-0.2v-9.8c0-0.1,0-0.1-0.1-0.2C237,67,236.9,66.9,236.9,66.9z"/>
		<path class="st0" d="M233,66.9h-1.2c-0.1,0-0.1,0-0.2,0.1c0,0-0.1,0.1-0.1,0.2v7.9c0,0.2,0,0.3-0.1,0.4c-0.1,0-0.2,0-0.4,0h-0.8
			H230h-1.6c0.1-0.1,0.2-0.2,0.3-0.3s0.2-0.3,0.2-0.5c0-0.2,0.1-0.4,0.1-0.5c0-0.2,0-0.4,0-0.5v-0.3c0-0.5-0.1-0.9-0.2-1.3
			c-0.2-0.3-0.4-0.6-0.7-0.8c-0.3-0.2-0.6-0.4-1-0.5s-0.8-0.1-1.3-0.1c-0.2,0-0.5,0-0.8,0.1c-0.3,0-0.5,0.1-0.8,0.2
			c-0.2,0.1-0.5,0.2-0.7,0.3s-0.5,0.2-0.6,0.4c-0.1,0.1-0.2,0.1-0.2,0.2c0,0-0.1,0.1-0.1,0.2v0.7c0,0,0,0.1,0,0.2s0,0.1,0,0.2l1,2.6
			h-1.8h-0.1h-0.4c-0.2,0-0.5,0-0.6-0.1s-0.2-0.3-0.2-0.6v-7.7c0-0.1,0-0.1-0.1-0.2c0,0-0.1-0.1-0.2-0.1H219c-0.1,0-0.2,0-0.2,0.1
			c0,0-0.1,0.1-0.1,0.2v8.2c0,0.4,0,0.7,0.1,1c0.1,0.2,0.2,0.5,0.4,0.6s0.4,0.2,0.6,0.3c0.2,0,0.5,0.1,0.8,0.1h0.9h0.1h8.2h0.1h0.5
			c0.2,0,0.4,0,0.6,0c0.2,0,0.5,0,0.7,0s0.4,0,0.6,0s0.3,0,0.4-0.1c0.1,0,0.2-0.1,0.2-0.2s0.1-0.1,0.1-0.2c0-0.2,0-0.5,0-0.8
			s0-0.6,0-0.8v-7.9C233.1,67.1,233.1,67,233,66.9C233.1,67,233.1,66.9,233,66.9z M227.4,73.7c0,0.2,0,0.5-0.1,0.7
			c0,0.2-0.1,0.4-0.2,0.6s-0.2,0.3-0.4,0.4s-0.3,0.2-0.5,0.2h-0.7l-1.2-3.1c0.2-0.2,0.5-0.3,0.8-0.3s0.5-0.1,0.7-0.1
			c0.5,0,0.9,0.1,1.2,0.3c0.3,0.2,0.4,0.6,0.4,1.1V73.7L227.4,73.7z"/>
		<path class="st0" d="M214.1,70.6c-0.5,0-0.9,0.1-1.2,0.2c-0.4,0.1-0.7,0.3-1,0.6c-0.2,0.2-0.5,0.6-0.6,1s-0.2,0.8-0.2,1.3v0.7
			c0,0.2,0,0.3,0,0.5c0,0.2,0,0.3,0.1,0.4c-0.5,0-0.9,0.2-1.2,0.5s-0.4,0.8-0.4,1.4v3.3c0,0.1,0,0.2,0.1,0.2c0,0,0.1,0.1,0.2,0.1
			h1.2c0.1,0,0.2,0,0.2-0.1c0,0,0.1-0.1,0.1-0.2v-3.1c0-0.2,0-0.4,0.2-0.5c0.1-0.1,0.2-0.1,0.5-0.1c0.2,0.2,0.6,0.4,1,0.5
			s0.8,0.1,1.2,0.1c1,0,1.7-0.2,2.2-0.7s0.8-1.2,0.8-2.3v-0.8c0-1-0.2-1.8-0.8-2.3C215.7,70.9,215,70.6,214.1,70.6z M215.3,74.3
			c0,0.6-0.1,1-0.3,1.2c-0.2,0.2-0.5,0.3-1,0.3s-0.8-0.1-1-0.4s-0.3-0.6-0.3-1.2v-0.4c0-0.5,0.1-1,0.3-1.2c0.2-0.2,0.5-0.4,1-0.4
			s0.8,0.1,1,0.4c0.2,0.2,0.3,0.7,0.3,1.2V74.3z"/>
		<path class="st0" d="M251.3,66.9h-1.2c-0.1,0-0.2,0-0.2,0.1c0,0-0.1,0.1-0.1,0.2V77c0,0.1,0,0.1,0.1,0.2c0,0,0.1,0.1,0.2,0.1h1.2
			c0.1,0,0.2,0,0.2-0.1c0,0,0.1-0.1,0.1-0.2v-9.8c0-0.1,0-0.1-0.1-0.2C251.5,67,251.4,66.9,251.3,66.9z"/>
		<path class="st0" d="M275.1,66.9h-1.2c-0.1,0-0.1,0-0.2,0.1c0,0-0.1,0.1-0.1,0.2v7.9c0,0.2,0,0.3-0.1,0.4c-0.1,0-0.2,0-0.4,0h-0.8
			h-0.1H272c-0.1,0-0.1,0-0.2,0s-0.2,0-0.2,0c-0.1,0-0.2,0-0.2-0.1c-0.1,0-0.1-0.1-0.2-0.1v-3.6c0-0.1,0-0.1-0.1-0.2
			c0,0-0.1-0.1-0.2-0.1h-1.2c-0.1,0-0.2,0-0.2,0.1c0,0-0.1,0.1-0.1,0.2v3.4c0,0.1,0,0.2-0.1,0.2c0,0-0.1,0.1-0.2,0.1s-0.2,0-0.2,0
			h-0.2H268h-0.1h-1.6c0.1-0.1,0.2-0.2,0.3-0.3c0.1-0.1,0.2-0.3,0.2-0.5c0-0.2,0.1-0.4,0.1-0.5c0-0.2,0-0.4,0-0.5v-0.3
			c0-0.5-0.1-0.9-0.2-1.3c-0.2-0.3-0.4-0.6-0.7-0.8c-0.3-0.2-0.6-0.4-1-0.5s-0.8-0.1-1.3-0.1c-0.2,0-0.5,0-0.8,0.1
			c-0.3,0-0.5,0.1-0.8,0.2c-0.2,0.1-0.5,0.2-0.7,0.3s-0.5,0.2-0.6,0.4c-0.1,0.1-0.2,0.1-0.2,0.2c0,0-0.1,0.1-0.1,0.2v0.7
			c0,0,0,0.1,0,0.2c0,0.1,0,0.1,0,0.2l1,2.6h-1.8h-0.1h-0.7v-1.3c0-0.5-0.1-1-0.2-1.4c-0.1-0.5-0.3-0.8-0.6-1.2
			c-0.3-0.3-0.6-0.6-1.1-0.8c-0.5-0.2-1-0.3-1.7-0.3c-0.1,0-0.3,0-0.6,0c-0.2,0-0.5,0-0.7,0.1c-0.1,0-0.2,0-0.2,0.1c0,0,0,0.1,0,0.2
			v1c0,0.1,0.1,0.2,0.2,0.2c0,0,0.1,0,0.2,0c0.1,0,0.2,0,0.2,0h0.2c0.1,0,0.1,0,0.2,0c0.4,0,0.8,0,1.1,0.1c0.3,0.1,0.5,0.2,0.7,0.4
			c0.2,0.2,0.3,0.4,0.4,0.7c0.1,0.2,0.1,0.5,0.2,0.9v1.2h-3.6c-0.1,0-0.1,0-0.2,0.1c0,0-0.1,0.1-0.1,0.2v1.2c0,0.1,0,0.1,0.1,0.2
			c0,0,0.1,0.1,0.2,0.1h6h0.1h8.2h0.1h0.3c0.2,0,0.3,0,0.5,0s0.3,0,0.5-0.1c0.2,0,0.3-0.1,0.5-0.1s0.3-0.1,0.4-0.2
			c0.2,0.2,0.5,0.3,0.9,0.4c0.4,0,0.7,0.1,1,0.1h0.1h0.1h0.5c0.2,0,0.4,0,0.6,0s0.5,0,0.7,0s0.4,0,0.6,0s0.3,0,0.4-0.1
			c0.1,0,0.2-0.1,0.2-0.2s0.1-0.1,0.1-0.2c0-0.2,0-0.5,0-0.8s0-0.6,0-0.8v-7.9c0-0.1,0-0.2-0.1-0.2C275.3,67,275.2,66.9,275.1,66.9z
			 M265.3,73.7c0,0.2,0,0.5-0.1,0.7c0,0.2-0.1,0.4-0.2,0.6s-0.2,0.3-0.4,0.4c-0.2,0.1-0.3,0.2-0.5,0.2h-0.7l-1.2-3.1
			c0.2-0.2,0.5-0.3,0.8-0.3s0.5-0.1,0.7-0.1c0.5,0,0.9,0.1,1.2,0.3c0.3,0.2,0.4,0.6,0.4,1.1L265.3,73.7L265.3,73.7z"/>
		<path class="st0" d="M89.6,66.9h-1.2c-0.1,0-0.2,0-0.2,0.1c0,0-0.1,0.1-0.1,0.2V77c0,0.1,0,0.1,0.1,0.2c0,0,0.1,0.1,0.2,0.1h1.2
			c0.1,0,0.2,0,0.2-0.1c0,0,0.1-0.1,0.1-0.2v-9.8c0-0.1,0-0.1-0.1-0.2C89.7,67,89.7,66.9,89.6,66.9z"/>
		<path class="st0" d="M247.8,74.6c0-0.1,0-0.2,0-0.3c0-0.5-0.1-1-0.2-1.4c-0.1-0.5-0.3-0.8-0.6-1.2c-0.2-0.3-0.6-0.6-1.1-0.8
			c-0.5-0.2-1-0.3-1.7-0.3c-0.1,0-0.3,0-0.6,0c-0.2,0-0.5,0-0.7,0.1c-0.1,0-0.2,0-0.2,0.1c0,0,0,0.1,0,0.2v1c0,0.1,0.1,0.2,0.2,0.2
			c0,0,0.1,0,0.2,0s0.2,0,0.2,0h0.2c0.1,0,0.1,0,0.2,0c0.4,0,0.8,0,1.1,0.1s0.5,0.2,0.7,0.4c0.2,0.2,0.3,0.4,0.4,0.7
			c0.1,0.2,0.1,0.5,0.2,0.9v1.2h-3.6c-0.1,0-0.1,0-0.2,0.1c0,0-0.1,0.1-0.1,0.2V77c0,0.1,0,0.1,0.1,0.2c0,0,0.1,0.1,0.2,0.1h4.9
			c0.1,0,0.2,0,0.2-0.1c0,0,0.1-0.1,0.1-0.2c0-0.2,0-0.4,0-0.6s0-0.4,0-0.5s0-0.2,0-0.4c0-0.2,0-0.3,0-0.5
			C247.8,74.9,247.8,74.7,247.8,74.6z"/>
		<path class="st0" d="M204.2,66.9H203c-0.1,0-0.1,0-0.2,0.1c0,0-0.1,0.1-0.1,0.2v7.9c0,0.2,0,0.3-0.1,0.4c-0.1,0-0.2,0-0.4,0h-0.8
			h-0.1H201c-0.1,0-0.3,0-0.5,0s-0.3-0.1-0.4-0.2v-8.1c0-0.1,0-0.2-0.1-0.2c0,0-0.1-0.1-0.2-0.1h-1.2c-0.1,0-0.1,0-0.2,0.1
			c0,0-0.1,0.1-0.1,0.2v7.9c0,0.1,0,0.2-0.1,0.2c0,0-0.1,0.1-0.2,0.1c-0.1,0-0.2,0-0.2,0c-0.1,0-0.2,0-0.2,0H197h-0.1h-0.2
			c-0.1,0-0.1,0-0.2,0c-0.1,0-0.2,0-0.3,0s-0.2,0-0.2-0.1c-0.1,0-0.1-0.1-0.2-0.1v-4c0-0.1,0-0.2-0.1-0.2c0,0-0.1-0.1-0.2-0.1h-1.2
			c-0.1,0-0.1,0-0.2,0.1c0,0-0.1,0.1-0.1,0.2V75c0,0.1,0,0.2-0.1,0.2c0,0-0.1,0.1-0.2,0.1c-0.1,0-0.2,0-0.2,0c-0.1,0-0.2,0-0.2,0
			H193c-0.2,0-0.4,0-0.5,0c-0.2,0-0.3-0.1-0.3-0.2v-3.5c0-0.1,0-0.1-0.1-0.2c0,0-0.1-0.1-0.2-0.1h-1.2c-0.1,0-0.1,0-0.2,0.1
			c0,0-0.1,0.1-0.1,0.2v3.3c0,0.1,0,0.2-0.1,0.2c0,0-0.1,0.1-0.2,0.1c-0.1,0-0.2,0-0.2,0h-0.2h-0.2c-0.1,0-0.1,0-0.2,0s-0.2,0-0.2,0
			c-0.1,0-0.2,0-0.2-0.1c-0.1,0-0.1-0.1-0.2-0.1v-3c0-0.1,0-0.2-0.1-0.2c0,0-0.1-0.1-0.2-0.1h-1.2c-0.1,0-0.1,0-0.2,0.1
			c0,0-0.1,0.1-0.1,0.2v2.8c0,0.2-0.1,0.3-0.2,0.4c-0.2,0-0.3,0.1-0.5,0.1h-0.3h-0.1h-0.9c0-0.1,0-0.1,0-0.2s0-0.2,0-0.3
			s0-0.2,0-0.3s0-0.2,0-0.2v-0.2c0-1.2-0.4-2-1-2.7c-0.7-0.6-1.7-0.9-3.2-0.9c-0.2,0-0.4,0-0.7,0c-0.2,0-0.6,0-1,0c0,0,0-0.1,0-0.2
			s0.1-0.2,0.1-0.3s0.1-0.2,0.2-0.3c0-0.1,0.1-0.2,0.2-0.3l1.3-2.4c0,0,0-0.1,0-0.2v-0.1c0,0-0.1,0-0.2,0h-1.2c-0.1,0-0.2,0-0.2,0.1
			c0,0-0.1,0.1-0.2,0.2l-1,1.9c-0.2,0.2-0.3,0.5-0.4,0.7c-0.1,0.2-0.2,0.5-0.3,0.7c-0.1,0.2-0.1,0.4-0.2,0.6c0,0.2,0,0.4,0,0.7
			c0,0,0,0,0,0.1v0.1v0.1V72c0,0.2,0.1,0.2,0.3,0.2h2.9c0.4,0,0.8,0,1.1,0.1s0.6,0.2,0.8,0.4c0.2,0.2,0.4,0.4,0.5,0.7
			c0.1,0.2,0.2,0.6,0.2,1c0,0.2,0,0.3,0,0.5c0,0.2,0,0.3,0,0.5H176h0h-0.4c-0.2,0-0.5,0-0.6-0.1s-0.2-0.3-0.2-0.6V67
			c0-0.1,0-0.1-0.1-0.2c0,0-0.1-0.1-0.2-0.1h-1.2c-0.1,0-0.2,0-0.2,0.1c0,0-0.1,0.1-0.1,0.2v8.2c0,0.4,0,0.7,0.1,1
			c0.1,0.2,0.2,0.5,0.4,0.6s0.4,0.2,0.6,0.3c0.2,0,0.5,0.1,0.8,0.1h0.9h0.1h9.6h0.1h0.2c0.1,0,0.2,0,0.4,0s0.3,0,0.5-0.1
			c0.2,0,0.3-0.1,0.5-0.1s0.3-0.1,0.4-0.2c0.2,0.2,0.5,0.3,0.8,0.4c0.3,0,0.5,0.1,0.8,0.1h0.2c0.3,0,0.7,0,0.9-0.1s0.5-0.2,0.7-0.4
			c0.3,0.2,0.5,0.3,0.8,0.4c0.2,0.1,0.5,0.1,0.9,0.1h0.2c0.3,0,0.6,0,0.9-0.1c0.3,0,0.6-0.2,0.8-0.4c0.3,0.2,0.6,0.3,1,0.4
			s0.7,0.1,1,0.1h0.1h0.1h0.4c0.2,0,0.3,0,0.5,0s0.3,0,0.5-0.1c0.2,0,0.3-0.1,0.5-0.1s0.3-0.1,0.4-0.2c0.2,0.2,0.5,0.3,0.9,0.4
			c0.4,0,0.7,0.1,1,0.1h0.1h0.1h0.5c0.2,0,0.4,0,0.6,0c0.2,0,0.5,0,0.7,0s0.4,0,0.6,0c0.2,0,0.3,0,0.4-0.1c0.1,0,0.2-0.1,0.2-0.2
			s0.1-0.1,0.1-0.2c0-0.2,0-0.5,0-0.8s0-0.6,0-0.8v-8.4c0,0,0-0.1-0.1-0.2C204.4,67,204.3,66.9,204.2,66.9z"/>
		<path class="st0" d="M147,66.9h-1.2c-0.1,0-0.1,0-0.2,0.1c0,0-0.1,0.1-0.1,0.2v7.9c0,0.2,0,0.3-0.1,0.4c-0.1,0-0.2,0-0.4,0h-0.8
			H144h-0.2c0,0-0.1,0-0.2,0c-0.1,0-0.2,0-0.2-0.1c-0.1,0-0.2-0.1-0.2-0.1c-0.1,0-0.1-0.1-0.1-0.2s0-0.2,0-0.3s0-0.2,0-0.3v-0.8
			c0-1-0.2-1.8-0.8-2.3c-0.5-0.5-1.3-0.7-2.2-0.7c-1,0-1.7,0.2-2.2,0.8c-0.5,0.5-0.8,1.3-0.8,2.3V75c0,0.1,0,0.2,0,0.3
			s0,0.1-0.1,0.2c0,0-0.1,0.1-0.2,0.1c-0.1,0-0.2,0-0.2,0c-0.1,0-0.2,0-0.2,0h-0.3H136h-0.2c-0.1,0-0.1,0-0.2,0c-0.1,0-0.2,0-0.3,0
			s-0.2,0-0.2-0.1c-0.1,0-0.1-0.1-0.2-0.1v-4c0-0.1,0-0.2-0.1-0.2c0,0-0.1-0.1-0.2-0.1h-1.2c-0.1,0-0.1,0-0.2,0.1
			c0,0-0.1,0.1-0.1,0.2v3.8c0,0.1,0,0.2-0.1,0.2c0,0-0.1,0.1-0.2,0.1c-0.1,0-0.2,0-0.2,0c-0.1,0-0.2,0-0.2,0h-0.1
			c-0.2,0-0.4,0-0.5,0c-0.2,0-0.3-0.1-0.3-0.2v-3.5c0-0.1,0-0.1-0.1-0.2c0,0-0.1-0.1-0.2-0.1H130c-0.1,0-0.1,0-0.2,0.1
			c0,0-0.1,0.1-0.1,0.2v3.3c0,0.1,0,0.2-0.1,0.2c0,0-0.1,0.1-0.2,0.1c-0.1,0-0.2,0-0.2,0H129h-0.2c-0.1,0-0.1,0-0.2,0s-0.2,0-0.2,0
			c-0.1,0-0.2,0-0.2-0.1c-0.1,0-0.1-0.1-0.2-0.1v-3c0-0.1,0-0.2-0.1-0.2c0,0-0.1-0.1-0.2-0.1H126c-0.1,0-0.1,0-0.2,0.1
			c0,0-0.1,0.1-0.1,0.2V75c0,0.2-0.1,0.3-0.2,0.4c-0.1,0.1-0.3,0.1-0.5,0.1h-0.3h-0.1h-0.4c-0.2,0-0.5,0-0.6-0.1s-0.2-0.3-0.2-0.6
			v-7.7c0-0.1,0-0.1-0.1-0.2c0,0-0.1-0.1-0.2-0.1h-1.2c-0.1,0-0.2,0-0.2,0.1c0,0-0.1,0.1-0.1,0.2v8.2c0,0.4,0,0.7,0.1,1
			c0.1,0.2,0.2,0.5,0.4,0.6c0.2,0.1,0.4,0.2,0.6,0.3c0.2,0,0.5,0.1,0.8,0.1h0.9h0.1h0.2c0.1,0,0.2,0,0.4,0c0.2,0,0.3,0,0.5-0.1
			c0.2,0,0.3-0.1,0.5-0.1s0.3-0.1,0.4-0.2c0.2,0.2,0.5,0.3,0.8,0.4c0.3,0,0.5,0.1,0.8,0.1h0.2c0.3,0,0.7,0,0.9-0.1s0.5-0.2,0.7-0.4
			c0.3,0.2,0.5,0.3,0.8,0.4c0.2,0.1,0.5,0.1,0.9,0.1h0.2c0.3,0,0.6,0,0.9-0.1c0.3,0,0.6-0.2,0.8-0.4c0.3,0.2,0.6,0.3,1,0.4
			s0.7,0.1,1,0.1h0.1h0.1h0.2c0.3,0,0.6,0,0.9-0.1c0.3-0.1,0.5-0.2,0.7-0.4c0.2,0.2,0.5,0.5,1,0.6c0.4,0.1,0.9,0.2,1.3,0.2
			s0.9-0.1,1.2-0.2s0.7-0.3,0.9-0.6c0.2,0.2,0.5,0.3,0.8,0.4s0.6,0.1,0.9,0.1h0.2h0.1h0.5c0.2,0,0.4,0,0.6,0c0.2,0,0.5,0,0.7,0
			s0.4,0,0.6,0c0.2,0,0.3,0,0.4-0.1c0.1,0,0.2-0.1,0.2-0.2s0.1-0.1,0.1-0.2c0-0.2,0-0.5,0-0.8s0-0.6,0-0.8v-7.9
			C147,67,146.9,66.9,147,66.9C147.1,67,147.1,66.9,147,66.9z M141.3,74.5c0,0.5-0.1,0.9-0.3,1.2c-0.2,0.2-0.5,0.4-1,0.4
			c-0.3,0-0.6-0.1-0.8-0.2s-0.4-0.4-0.5-0.7c0-0.2,0-0.4,0-0.6V74c0-0.5,0.1-1,0.3-1.2c0.2-0.2,0.5-0.4,1-0.4s0.8,0.1,1,0.4
			c0.2,0.2,0.3,0.7,0.3,1.2V74.5L141.3,74.5z"/>
		<path class="st0" d="M118.9,71.8c-0.3-0.3-0.8-0.6-1.3-0.7c-0.5-0.1-1.2-0.2-2-0.2c-0.2,0-0.4,0-0.6,0s-0.5,0-0.9,0
			c0,0,0-0.1,0-0.2c0-0.1,0.1-0.2,0.1-0.3s0.1-0.2,0.2-0.3c0-0.1,0.1-0.2,0.2-0.3l1.3-2.5c0,0,0-0.1,0-0.2V67c0,0-0.1,0-0.2,0h-1.2
			c-0.1,0-0.2,0-0.2,0.1c0,0-0.1,0.1-0.2,0.2l-1,1.9c-0.2,0.2-0.3,0.5-0.4,0.7c-0.1,0.2-0.2,0.5-0.3,0.7c-0.1,0.2-0.1,0.4-0.2,0.6
			c0,0.2,0,0.4,0,0.7c0,0,0,0,0,0.1v0.1v0.1v0.1c0,0.2,0.1,0.2,0.3,0.2h2.9c0.4,0,0.8,0,1.1,0.1c0.3,0.1,0.6,0.2,0.8,0.4
			c0.2,0.2,0.4,0.4,0.5,0.7c0.1,0.2,0.2,0.6,0.2,1c0,0.2,0,0.3,0,0.5c0,0.2,0,0.3,0,0.5c-0.1,0-0.2,0-0.4,0c-0.2,0-0.4,0-0.5,0
			c-0.2,0-0.4,0-0.5,0c-0.2,0-0.3,0-0.3,0h-5.1h-0.1H110v-3.9c0-0.1,0-0.1-0.1-0.2c0,0-0.1-0.1-0.2-0.1h-1.2c-0.1,0-0.1,0-0.2,0.1
			c0,0-0.1,0.1-0.1,0.2v4c0,0.4,0,0.7,0,1.1c0,0.3,0,0.7,0,1.2c-0.2,0-0.4,0-0.5,0c-0.2,0-0.3,0-0.5,0c-0.6,0-1.1-0.1-1.5-0.2
			c-0.4-0.2-0.7-0.4-0.9-0.7s-0.3-0.6-0.4-1s-0.1-0.9-0.1-1.4c0-0.1,0-0.3,0-0.5c0-0.2,0-0.5,0-0.6s0-0.2-0.2-0.2h-1
			c-0.1,0-0.2,0-0.2,0s-0.1,0.1-0.1,0.2c0,0.1,0,0.3-0.1,0.5c0,0.2,0,0.4,0,0.5s0,0.4,0,0.5s0,0.3,0,0.4c0,1.5,0.4,2.6,1.1,3.2
			c0.7,0.7,1.9,1,3.4,1c0.4,0,0.8,0,1.2,0c0.4,0,0.8-0.1,1.2-0.2c0.2,0,0.3-0.2,0.3-0.3c0-0.2,0-0.5,0-0.9c0-0.3,0-0.7,0-1h1.1h0.1
			h5.2c0.2,0,0.5,0,0.8,0s0.6,0,0.9,0s0.5,0,0.8,0c0.2,0,0.4,0,0.6,0s0.3-0.1,0.3-0.2s0-0.2,0-0.4c0-0.2,0-0.3,0-0.5s0-0.3,0-0.5
			c0-0.2,0-0.3,0-0.4v-0.6c0-0.7-0.1-1.2-0.2-1.7C119.5,72.6,119.2,72.2,118.9,71.8z"/>
		<path class="st0" d="M171,71.5h-1.2c-0.1,0-0.1,0-0.2,0.1c0,0-0.1,0.1-0.1,0.2v4c0,0.4,0,0.7,0,1.1c0,0.3,0,0.7,0,1.2
			c-0.2,0-0.4,0-0.5,0c-0.2,0-0.3,0-0.5,0c-0.6,0-1.1-0.1-1.5-0.2c-0.4-0.2-0.7-0.4-0.9-0.7s-0.3-0.6-0.4-1
			c-0.1-0.4-0.1-0.9-0.1-1.4c0-0.1,0-0.3,0-0.5c0-0.2,0-0.5,0-0.6s0-0.2-0.2-0.2h-1c-0.1,0-0.2,0-0.2,0s-0.1,0.1-0.1,0.2
			c0,0.1,0,0.3-0.1,0.5c0,0.2,0,0.4,0,0.5s0,0.4,0,0.5s0,0.3,0,0.4c0,1.5,0.4,2.6,1.1,3.2c0.7,0.7,1.9,1,3.4,1c0.4,0,0.8,0,1.2,0
			s0.8-0.1,1.2-0.2c0.2,0,0.3-0.1,0.3-0.3c0-0.3,0-0.7,0-1.1s0-0.8,0-1.1v-5.3C171.1,71.6,171.1,71.6,171,71.5
			C171.1,71.5,171.1,71.5,171,71.5z"/>
		<path class="st0" d="M97.4,70.9c-0.1,0-0.2-0.1-0.4-0.1c-0.2,0-0.3,0-0.5-0.1c-0.2,0-0.4,0-0.6,0s-0.4,0-0.5,0
			c-1.2,0-2.1,0.3-2.7,0.9c-0.6,0.6-1,1.4-1,2.5v0.3c0,1,0.2,1.7,0.8,2.2c0.5,0.5,1.3,0.7,2.2,0.7c0.1,0,0.2,0,0.3,0
			c0.1,0,0.2,0,0.3,0c0.1,0,0.2,0,0.3-0.1c0.1,0,0.2-0.1,0.2-0.1v0.6c0,0.2,0,0.5-0.2,0.6c-0.1,0.2-0.2,0.3-0.4,0.4
			c-0.2,0.1-0.4,0.2-0.7,0.2c-0.2,0-0.6,0-0.9,0h-1.2c-0.2,0-0.2,0.1-0.2,0.2v1c0,0.1,0,0.1,0,0.2c0,0,0.1,0.1,0.2,0.1
			c0,0,0.2,0,0.3,0c0.1,0,0.3,0,0.5,0s0.3,0,0.5,0s0.3,0,0.4,0c0.5,0,0.9,0,1.4-0.1c0.4-0.1,0.8-0.2,1.1-0.5s0.6-0.5,0.8-1
			c0.2-0.4,0.3-1,0.3-1.6V71c0-0.1,0-0.1,0-0.2C97.5,71,97.4,71,97.4,70.9z M95.9,75.3c0,0.2-0.1,0.3-0.3,0.3c-0.2,0-0.5,0-0.7,0
			c-0.5,0-0.9-0.1-1.1-0.4c-0.2-0.2-0.3-0.6-0.3-1.2v-0.2c0-0.5,0.1-1,0.4-1.2c0.3-0.3,0.7-0.5,1.2-0.5c0.3,0,0.6,0,0.8,0V75.3
			L95.9,75.3z"/>
		<path class="st0" d="M150.9,66.9h-1.2c-0.1,0-0.2,0-0.2,0.1c0,0-0.1,0.1-0.1,0.2V77c0,0.1,0,0.1,0.1,0.2c0,0,0.1,0.1,0.2,0.1h1.2
			c0.1,0,0.2,0,0.2-0.1c0,0,0.1-0.1,0.1-0.2v-9.8c0-0.1,0-0.1-0.1-0.2C151,67,150.9,66.9,150.9,66.9z"/>
		<path class="st0" d="M158.6,70.9c-0.1,0-0.2-0.1-0.4-0.1s-0.3,0-0.5-0.1c-0.2,0-0.4,0-0.6,0c-0.2,0-0.4,0-0.5,0
			c-1.2,0-2.1,0.3-2.7,0.9c-0.6,0.6-1,1.4-1,2.5v0.3c0,1,0.2,1.7,0.8,2.2c0.5,0.5,1.3,0.7,2.2,0.7c0.1,0,0.2,0,0.3,0s0.2,0,0.3,0
			s0.2,0,0.3-0.1c0.1,0,0.2-0.1,0.2-0.1v0.6c0,0.2,0,0.5-0.2,0.6c-0.1,0.2-0.2,0.3-0.4,0.4s-0.4,0.2-0.7,0.2c-0.2,0-0.6,0-0.9,0
			h-1.2c-0.2,0-0.2,0.1-0.2,0.2v1c0,0.1,0,0.1,0,0.2c0,0,0.1,0.1,0.2,0.1c0,0,0.2,0,0.3,0s0.3,0,0.5,0s0.3,0,0.5,0s0.3,0,0.4,0
			c0.5,0,0.9,0,1.4-0.1c0.4-0.1,0.8-0.2,1.1-0.5c0.3-0.2,0.6-0.5,0.8-1c0.2-0.4,0.3-1,0.3-1.6V71c0-0.1,0-0.1,0-0.2
			C158.8,71,158.8,71,158.6,70.9z M157.2,75.3c0,0.2-0.1,0.3-0.3,0.3s-0.5,0-0.7,0c-0.5,0-0.9-0.1-1.1-0.4c-0.2-0.2-0.3-0.6-0.3-1.2
			v-0.2c0-0.5,0.1-1,0.4-1.2c0.3-0.3,0.7-0.5,1.2-0.5c0.3,0,0.6,0,0.8,0L157.2,75.3L157.2,75.3z"/>
	</g>
	<path class="st0" d="M1.7,67.2c-0.5,0.1-1,0.2-1.4,0.3c-0.1,0-0.1,0-0.2,0.1c0,0-0.1,0.1-0.1,0.2v1c0,0.1,0,0.1,0.1,0.2
		c0,0,0.1,0.1,0.2,0.1l0,0c0.4,0,0.9-0.1,1.3-0.1c0.5,0,0.9,0,1.3,0c0.5,0,1,0.1,1.1,0.2c0.2,0.1,0.3,0.3,0.3,0.6c0,0.2,0,0.3,0,0.4
		c0,0.1-0.1,0.2-0.2,0.3c0.1,0.1-0.1,0.2-0.3,0.3s-0.4,0.3-0.7,0.5l-1.2,0.9c-0.5,0.4-1,0.9-1.3,1.5c-0.4,0.6-0.5,1.2-0.5,2v1.4
		c0,0.1,0,0.1,0.1,0.2c0,0,0.1,0.1,0.2,0.1h6.1c0.1,0,0.1,0,0.2-0.1c0,0,0.1-0.1,0.1-0.2v-1.4c0-0.1,0-0.1-0.1-0.2
		c0,0-0.1-0.1-0.2-0.1H2l0,0c0-0.2,0-0.5,0.1-0.7c0.1-0.2,0.2-0.4,0.4-0.6c0.2-0.2,0.4-0.4,0.6-0.5s0.5-0.4,0.8-0.5l1.2-0.8
		C5.6,72,6,71.6,6.3,71.2c0.2-0.4,0.4-0.9,0.4-1.5c0-0.9-0.2-1.5-0.8-2C5.4,67.3,4.5,67,3.2,67C2.8,67,2.3,67.1,1.7,67.2 M11.7,75.4
		c-0.2-0.1-0.3-0.2-0.4-0.4c-0.1-0.2-0.2-0.5-0.3-0.8c-0.1-0.3-0.1-0.8-0.1-1.3v-1.2c0-0.5,0-1,0.1-1.3c0.1-0.3,0.2-0.6,0.3-0.8
		c0.1-0.2,0.2-0.3,0.4-0.4c0.2-0.1,0.3-0.1,0.5-0.1s0.4,0,0.5,0.1c0.2,0.1,0.3,0.2,0.4,0.4c0.1,0.2,0.2,0.5,0.3,0.8
		c0.1,0.3,0.1,0.8,0.1,1.3v1.1c0,0.5,0,1-0.1,1.3c-0.1,0.3-0.2,0.6-0.3,0.8c-0.1,0.2-0.2,0.3-0.4,0.4c-0.2,0.1-0.3,0.1-0.5,0.1
		S11.8,75.5,11.7,75.4 M10.6,67.3c-0.5,0.2-0.8,0.5-1.2,0.8c-0.4,0.3-0.5,0.8-0.7,1.5c-0.2,0.6-0.2,1.3-0.2,2.1v1.2
		c0,0.8,0.1,1.5,0.2,2.1c0.2,0.6,0.4,1,0.7,1.4s0.7,0.6,1.2,0.8c0.5,0.2,1,0.2,1.5,0.2c0.6,0,1.1-0.1,1.5-0.2
		c0.5-0.2,0.8-0.5,1.2-0.8c0.3-0.4,0.5-0.8,0.7-1.4s0.2-1.3,0.2-2.1v-1.2c0-0.8-0.1-1.5-0.2-2.1c-0.2-0.6-0.4-1.1-0.7-1.5
		s-0.7-0.7-1.2-0.8c-0.5-0.2-1-0.2-1.5-0.2S11.1,67.1,10.6,67.3 M19.4,67.2c-0.5,0.1-1,0.2-1.4,0.3c-0.1,0-0.1,0-0.2,0.1
		c0,0-0.1,0.1-0.1,0.2v1c0,0.1,0,0.1,0.1,0.2c0,0,0.1,0.1,0.2,0.1l0,0c0.4,0,0.9-0.1,1.3-0.1c0.5,0,0.9,0,1.3,0
		c0.5,0,0.9,0.1,1.1,0.2c0.2,0.1,0.3,0.3,0.3,0.6c0,0.2,0,0.3,0,0.4c0,0.1-0.1,0.2-0.2,0.3s-0.2,0.2-0.4,0.3
		c-0.2,0.1-0.4,0.3-0.7,0.5l-1.2,0.9c-0.5,0.4-1,0.9-1.3,1.5c-0.4,0.6-0.5,1.2-0.5,2v1.4c0,0.1,0,0.1,0.1,0.2c0,0,0.1,0.1,0.2,0.1h6
		c0.1,0,0.1,0,0.2-0.1c0,0,0.1-0.1,0.1-0.2v-1.4c0-0.1,0-0.1-0.1-0.2c0,0-0.1-0.1-0.2-0.1h-4.3l0,0c0-0.2,0-0.5,0.1-0.7
		c0.1-0.2,0.2-0.4,0.4-0.6c0.2-0.2,0.4-0.4,0.6-0.5c0.2-0.2,0.5-0.4,0.8-0.5l1.2-0.8c0.5-0.3,0.9-0.7,1.2-1.1
		c0.2-0.4,0.4-0.9,0.4-1.5c0-0.9-0.2-1.5-0.8-2c-0.5-0.4-1.4-0.7-2.7-0.7C20.4,67,19.9,67.1,19.4,67.2 M29.3,75.4
		c-0.2-0.1-0.3-0.2-0.4-0.4c-0.1-0.2-0.2-0.5-0.3-0.8c-0.1-0.3-0.1-0.8-0.1-1.3v-1.2c0-0.5,0-1,0.1-1.3c0.1-0.3,0.2-0.6,0.3-0.8
		c0.1-0.2,0.2-0.3,0.4-0.4c0.2-0.1,0.3-0.1,0.5-0.1s0.4,0,0.5,0.1c0.2,0.1,0.3,0.2,0.4,0.4c0.1,0.2,0.2,0.5,0.3,0.8
		c0.1,0.3,0.1,0.8,0.1,1.3v1.1c0,0.5,0,1-0.1,1.3c-0.1,0.3-0.2,0.6-0.3,0.8c-0.1,0.2-0.2,0.3-0.4,0.4c-0.2,0.1-0.3,0.1-0.5,0.1
		C29.6,75.5,29.5,75.5,29.3,75.4 M28.3,67.3c-0.5,0.2-0.8,0.5-1.2,0.8c-0.3,0.4-0.5,0.8-0.7,1.5c-0.2,0.6-0.2,1.3-0.2,2.1v1.2
		c0,0.8,0.1,1.5,0.2,2.1c0.2,0.6,0.4,1,0.7,1.4c0.3,0.4,0.7,0.6,1.2,0.8c0.5,0.2,1,0.2,1.5,0.2s1.1-0.1,1.5-0.2
		c0.5-0.2,0.8-0.5,1.2-0.8c0.3-0.4,0.5-0.8,0.7-1.4s0.2-1.3,0.2-2.1v-1.2c0-0.8-0.1-1.5-0.2-2.1c-0.2-0.6-0.4-1.1-0.7-1.5
		s-0.7-0.7-1.2-0.8s-1-0.2-1.5-0.2C29.2,67,28.7,67.1,28.3,67.3"/>
</g>
<g>
	<g>
		<path class="st0" d="M134,32.9c0.3,0,0.6,0.3,0.6,0.6v2.8c0,0.3-0.3,0.6-0.6,0.6c-0.3,0-0.6-0.3-0.6-0.6v-2.8
			C133.4,33.2,133.7,32.9,134,32.9z"/>
		<path class="st0" d="M136.4,31.8c0.3,0,0.5,0.3,0.5,0.6v2.2c0,0.3-0.2,0.6-0.5,0.6s-0.5-0.2-0.5-0.6v-2.2
			C135.9,32,136.1,31.8,136.4,31.8z"/>
		<path class="st0" d="M138.7,30.7c0.2,0,0.4,0.2,0.4,0.5v1.7c0,0.2-0.2,0.5-0.4,0.5s-0.4-0.2-0.4-0.5v-1.7
			C138.2,30.9,138.4,30.7,138.7,30.7z"/>
		<g>
			<g>
				<g>
					<g>
						<path class="st0" d="M0.2,37.5h3.2c0.1,0,0.2-0.1,0.2-0.2v-0.4c0-0.1-0.1-0.2-0.2-0.2H1.6V36c0-0.3,0.1-0.6,0.2-0.8
							C2,35,2.2,35,2.5,35c0.2,0,0.5,0,0.7,0.2c0,0,0,0,0.1,0c0.1,0,0.2-0.1,0.2-0.1l0.1-0.3c0-0.1,0-0.2-0.1-0.2
							c-0.2-0.1-0.5-0.2-0.9-0.2c-0.4,0-0.7,0.1-1,0.2C1.3,34.5,1.1,34.7,1,35s-0.2,0.5-0.2,0.9v0.9H0.2c-0.1,0-0.2,0.1-0.2,0.2v0.3
							C0,37.4,0.1,37.5,0.2,37.5z"/>
						<path class="st0" d="M79.7,31.3l0.1-0.3c0-0.1,0-0.1,0-0.1c-0.1-0.1-0.3-0.1-0.5-0.1s-0.3,0-0.5,0.1c-0.1,0.1-0.2,0.2-0.3,0.3
							c-0.1,0.1-0.1,0.3-0.1,0.4v0.2H78c0,0-0.1,0-0.1,0.1v0.3c0,0,0,0.1,0.1,0.1h1.7c0,0,0.1,0,0.1-0.1v-0.3c0,0,0-0.1-0.1-0.1
							h-0.9v-0.2c0-0.1,0-0.2,0.1-0.3c0.1-0.1,0.2-0.1,0.3-0.1c0.1,0,0.3,0,0.4,0.1C79.6,31.3,79.7,31.4,79.7,31.3z"/>
						<path class="st0" d="M27.2,38.8l0.1-0.3c0-0.1,0-0.1,0-0.1c-0.1-0.1-0.3-0.1-0.5-0.1s-0.4,0-0.5,0.1c-0.1,0.1-0.2,0.2-0.3,0.3
							c-0.1,0.1-0.1,0.3-0.1,0.4v0.2h-0.3c0,0-0.1,0-0.1,0.1v0.3c0,0,0,0.1,0.1,0.1h1.6c0,0,0.1,0,0.1-0.1v-0.3c0,0,0-0.1-0.1-0.1
							h-0.9v-0.2c0-0.1,0-0.2,0.1-0.3c0.1-0.1,0.2-0.1,0.3-0.1c0.1,0,0.3,0,0.4,0.1C27.1,38.9,27.2,38.9,27.2,38.8z"/>
						<path class="st0" d="M22.1,35c-0.1-0.5-0.2-0.9-0.3-1.1c-0.3-0.5-0.7-0.8-1.4-0.8c-0.6,0-1,0.1-1.5,0.3
							c-0.1,0-0.1,0.2-0.1,0.3L19,34c0,0.1,0.1,0.1,0.2,0.1c0,0,0.1,0,0.1,0c0.4-0.2,0.7-0.3,1-0.3c0.3,0,0.6,0.1,0.7,0.3
							c0.2,0.2,0.3,0.6,0.4,1c0.1,0.9,0.5,1.4,0.7,1.6H17v-1.4c0-0.8-0.2-1.3-0.5-1.7c-0.3-0.3-0.8-0.5-1.4-0.5h-0.1
							c-0.5,0-0.9,0.1-1.4,0.3c-0.5,0.2-1.2,0.7-1.7,1.5v-1.3c0-0.1-0.1-0.2-0.2-0.2h-0.4c-0.1,0-0.2,0.1-0.2,0.2v3.1H5.7v-5.8
							c0-0.1-0.1-0.2-0.2-0.2H5.1c-0.1,0-0.2,0.1-0.2,0.2v6.5h18c0.1,0,0.1-0.1,0.1-0.2l0-0.6C22.7,36.5,22.2,35.9,22.1,35z
							 M12,36.7c0-0.5,0.2-1.1,0.5-1.6c0.7-1,1.7-1.3,2.4-1.3c0.4,0,0.8,0.1,1,0.4c0.2,0.2,0.3,0.6,0.3,1.2v1.4
							C16.2,36.7,12,36.7,12,36.7z"/>
						<path class="st0" d="M24.1,37.5h7.3c0.1,0,0.1-0.1,0.1-0.2v-6.4c0-0.1-0.1-0.2-0.2-0.2h-0.4c-0.1,0-0.2,0.1-0.2,0.2v5.8h-2
							v-5.8c0-0.1-0.1-0.2-0.2-0.2h-0.4c-0.1,0-0.2,0.1-0.2,0.2v5.8h-1.1l-1-4.7c0-0.1-0.1-0.2-0.2-0.2h-0.4c-0.1,0-0.1,0-0.1,0.1
							c0,0,0,0.1,0,0.2l1,4.5h-2c-0.1,0-0.2,0.1-0.2,0.2v0.3C23.9,37.4,23.9,37.5,24.1,37.5z"/>
						<path class="st0" d="M63.9,37.3v-6.4c0-0.1-0.1-0.2-0.2-0.2h-0.4c-0.1,0-0.2,0.1-0.2,0.2v5.8h-5c-0.3,0-0.6,0-0.9-0.2
							c0.5-0.3,0.8-0.8,1.1-1.3c0.2-0.5,0.4-1,0.4-1.6c0-0.1,0-0.2-0.1-0.2c-0.3-0.2-0.6-0.3-1-0.4c-0.3-0.1-0.7-0.1-1-0.1
							c-0.4,0-0.8,0-1.1,0.2c-0.3,0.1-0.7,0.2-0.9,0.4c-0.1,0-0.1,0.1-0.1,0.2c0,0.6,0.2,1.1,0.4,1.6c0.3,0.5,0.6,1,1.1,1.3
							c-0.2,0.1-0.6,0.2-0.9,0.2h-4.6V31c0-0.1-0.1-0.2-0.2-0.2h-0.4c-0.1,0-0.2,0.1-0.2,0.2v6.4c0,0.1,0.1,0.2,0.2,0.2H55
							c0.5,0,1.1-0.2,1.5-0.4c0.5,0.3,1,0.4,1.6,0.4h5.7C63.9,37.5,63.9,37.4,63.9,37.3z M55.6,35.2c-0.2-0.4-0.3-0.8-0.3-1.2
							c0.4-0.2,0.8-0.3,1.2-0.3h0.1c0.4,0,0.8,0.1,1.2,0.3c0,0.5-0.2,0.9-0.3,1.2c-0.2,0.4-0.5,0.7-0.9,1
							C56.2,35.8,55.8,35.5,55.6,35.2z"/>
						<path class="st0" d="M66.6,30.7h-0.4c-0.1,0-0.2,0.1-0.2,0.2v6.3c0,0.1,0.1,0.2,0.2,0.2h0.4c0.1,0,0.2-0.1,0.2-0.2v-6.3
							C66.8,30.8,66.7,30.7,66.6,30.7z"/>
						<path class="st0" d="M96.9,37.5c0.1,0,0.2-0.1,0.2-0.2v-6.4c0-0.1-0.1-0.2-0.2-0.2h-0.4c-0.1,0-0.2,0.1-0.2,0.2v5.8h-3.6v-1.5
							c0-0.9-0.2-1.7-0.8-2.2s-1.2-0.8-2.1-0.8c-0.6,0-1.1,0.1-1.6,0.2c-0.1,0-0.1,0-0.1,0.1c0,0,0,0.1,0,0.2l0.1,0.3
							c0,0.1,0.1,0.1,0.2,0.1c0,0,0,0,0,0c0.5-0.1,0.9-0.2,1.4-0.2c0.7,0,1.3,0.2,1.6,0.6c0.3,0.4,0.5,1,0.5,1.7v1.4H91v-1.1
							c0-1.3-0.6-1.9-1.7-1.9c-0.3,0-0.6,0.1-0.9,0.2c-0.3,0.2-0.5,0.4-0.7,0.8c-0.1,0.3-0.2,0.6-0.2,0.9c0,0.3,0.1,0.5,0.2,0.7
							c0.1,0.2,0.2,0.3,0.4,0.5h-4v-3.4c0-0.1-0.1-0.2-0.2-0.2h-0.4c-0.1,0-0.2,0.1-0.2,0.2v3.4h-4.1v-3.4c0-0.1-0.1-0.2-0.2-0.2
							h-0.4c-0.1,0-0.2,0.1-0.2,0.2v3.4h-4.6v-3.4c0-0.1-0.1-0.2-0.2-0.2h-1.1c-0.7,0-1.3,0.2-1.7,0.6c-0.4,0.4-0.6,1-0.6,1.6
							s0.2,1.2,0.6,1.6s0.9,0.5,1.6,0.5L96.9,37.5L96.9,37.5z M89.4,34.5c0.6,0,0.9,0.4,0.9,1.2v1h-0.7c-0.3,0-0.6-0.1-0.8-0.3
							s-0.3-0.5-0.3-0.8s0.1-0.6,0.2-0.8C88.9,34.6,89.1,34.5,89.4,34.5z M73.1,33.9v2.8h-0.7c-0.4,0-0.8-0.1-1-0.3
							c-0.2-0.2-0.3-0.6-0.3-1s0.1-0.8,0.4-1.1c0.3-0.3,0.7-0.4,1.1-0.4L73.1,33.9L73.1,33.9z"/>
						<path class="st0" d="M99.5,30.7H99c-0.1,0-0.2,0.1-0.2,0.2v6.3c0,0.1,0.1,0.2,0.2,0.2h0.4c0.1,0,0.2-0.1,0.2-0.2v-6.3
							C99.6,30.8,99.6,30.7,99.5,30.7z"/>
						<path class="st0" d="M43.5,37.5c0.5,0,0.9-0.2,1.1-0.7c0.3,0.5,0.8,0.7,1.7,0.7H48c0.1,0,0.2-0.1,0.2-0.2v-2
							c0-1.4-0.6-2.1-1.9-2.1c-1.3,0-2.1,0.9-2.1,2.3c0,1.1-0.3,1.2-0.7,1.2h-5v-3.4c0-0.1-0.1-0.2-0.2-0.2h-1.1
							c-0.7,0-1.3,0.2-1.7,0.6c-0.4,0.4-0.6,1-0.6,1.6s0.2,1.2,0.6,1.6s0.9,0.5,1.6,0.5C43.5,37.5,43.5,37.5,43.5,37.5z M37.7,33.9
							v2.8H37c-0.4,0-0.8-0.1-1-0.3c-0.2-0.2-0.3-0.6-0.3-1s0.1-0.8,0.4-1.1c0.3-0.3,0.7-0.4,1.1-0.4L37.7,33.9L37.7,33.9z
							 M46.2,33.9c0.8,0,1.1,0.5,1.1,1.5v1.3h-0.9c-1,0-1.4-0.4-1.4-1.3C45,34.5,45.5,33.9,46.2,33.9z"/>
						<path class="st0" d="M84.8,38.3h-0.4c-0.1,0-0.1,0-0.2,0.1c0,0-0.1,0.1-0.1,0.2v0.7c0,0.1,0,0.1,0.1,0.2c0,0,0.1,0.1,0.2,0.1
							h0.4c0.1,0,0.1,0,0.2-0.1c0,0,0.1-0.1,0.1-0.2v-0.7c0-0.1,0-0.1-0.1-0.2C84.9,38.3,84.8,38.3,84.8,38.3z"/>
						<path class="st0" d="M83.3,38.3h-0.4c-0.1,0-0.1,0-0.2,0.1c0,0-0.1,0.1-0.1,0.2v0.7c0,0.1,0,0.1,0.1,0.2c0,0,0.1,0.1,0.2,0.1
							h0.4c0.1,0,0.1,0,0.2-0.1c0,0,0.1-0.1,0.1-0.2v-0.7c0-0.1,0-0.1-0.1-0.2S83.3,38.3,83.3,38.3z"/>
						<path class="st0" d="M73.2,32.5h0.4c0.1,0,0.1,0,0.2-0.1c0,0,0.1-0.1,0.1-0.2v-0.7c0-0.1,0-0.1-0.1-0.2c0,0-0.1-0.1-0.2-0.1
							h-0.4c-0.1,0-0.1,0-0.2,0.1c0,0-0.1,0.1-0.1,0.2v0.7c0,0.1,0,0.1,0.1,0.2S73.2,32.5,73.2,32.5z"/>
						<path class="st0" d="M71.7,32.5h0.4c0.1,0,0.1,0,0.2-0.1c0,0,0.1-0.1,0.1-0.2v-0.7c0-0.1,0-0.1-0.1-0.2c0,0-0.1-0.1-0.2-0.1
							h-0.4c-0.1,0-0.1,0-0.2,0.1c0,0-0.1,0.1-0.1,0.2v0.7c0,0.1,0,0.1,0.1,0.2C71.6,32.5,71.7,32.5,71.7,32.5z"/>
						<path class="st0" d="M37.9,32.5h0.4c0.1,0,0.1,0,0.2-0.1c0,0,0.1-0.1,0.1-0.2v-0.7c0-0.1,0-0.1-0.1-0.2c0,0-0.1-0.1-0.2-0.1
							h-0.4c-0.1,0-0.1,0-0.2,0.1c0,0-0.1,0.1-0.1,0.2v0.7c0,0.1,0,0.1,0.1,0.2S37.9,32.5,37.9,32.5z"/>
						<path class="st0" d="M36.4,32.5h0.4c0.1,0,0.1,0,0.2-0.1c0,0,0.1-0.1,0.1-0.2v-0.7c0-0.1,0-0.1-0.1-0.2c0,0-0.1-0.1-0.2-0.1
							h-0.4c-0.1,0-0.1,0-0.2,0.1c0,0-0.1,0.1-0.1,0.2v0.7c0,0.1,0,0.1,0.1,0.2C36.3,32.5,36.4,32.5,36.4,32.5z"/>
						<path class="st0" d="M3.5,45.2H3.1c0,0-0.1,0-0.1,0.1s0,0.1,0,0.1v2.3c-0.1,0-0.2,0-0.3,0c-0.2,0-0.4,0-0.6,0
							c-0.2,0-0.3,0-0.5-0.1s-0.3-0.2-0.4-0.3s-0.2-0.3-0.3-0.6c-0.1-0.2-0.1-0.5-0.1-0.8v-1.1c0-0.4,0-0.7,0.1-0.9s0.2-0.4,0.3-0.6
							s0.3-0.2,0.4-0.3c0.2-0.1,0.3-0.1,0.5-0.1c0.2,0,0.3,0,0.4,0l0.4,0c0.1,0,0.2,0,0.3,0c0.1,0,0.2,0,0.3,0h0
							c0.1,0,0.1-0.1,0.1-0.1v-0.4c0-0.1,0-0.1,0-0.1c0,0-0.1,0-0.1,0c-0.2,0-0.3,0-0.6-0.1c-0.2,0-0.5,0-0.9,0
							c-0.2,0-0.5,0-0.8,0.1c-0.2,0.1-0.5,0.2-0.7,0.4c-0.2,0.2-0.4,0.5-0.5,0.8C0,43.8,0,44.3,0,44.8v1.1c0,0.5,0.1,0.9,0.2,1.2
							c0.1,0.3,0.3,0.6,0.5,0.8c0.2,0.2,0.4,0.3,0.6,0.4s0.5,0.1,0.7,0.1c0.4,0,0.7,0,0.9,0c0.2,0,0.5,0,0.6-0.1
							c0.1,0,0.2-0.1,0.2-0.2v-2.8c0,0,0-0.1,0-0.1C3.6,45.2,3.6,45.2,3.5,45.2z"/>
						<path class="st0" d="M7.6,44.3C7.4,44.1,7.2,44,7,43.9c-0.2-0.1-0.5-0.1-0.8-0.1c-0.6,0-1,0.2-1.3,0.5s-0.4,0.8-0.4,1.4v0.7
							c0,0.4,0.1,0.7,0.2,1s0.2,0.5,0.4,0.6c0.2,0.2,0.4,0.3,0.6,0.3c0.2,0.1,0.4,0.1,0.7,0.1c0.3,0,0.5,0,0.7,0
							c0.2,0,0.4-0.1,0.7-0.1c0.1,0,0.1,0,0.1-0.1c0,0,0-0.1,0-0.1v-0.3c0-0.1,0-0.1-0.1-0.1c0,0-0.1,0-0.1,0h0
							c-0.2,0-0.4,0-0.7,0.1s-0.5,0-0.7,0c-0.3,0-0.6-0.1-0.8-0.3c-0.2-0.2-0.3-0.5-0.3-1v-0.1h2.5c0.1,0,0.2,0,0.2-0.2v-0.4
							c0-0.3,0-0.6-0.1-0.8C7.8,44.7,7.7,44.5,7.6,44.3z M5.3,45.7c0-0.4,0.1-0.8,0.3-1s0.4-0.3,0.7-0.3c0.3,0,0.6,0.1,0.7,0.3
							c0.2,0.2,0.2,0.5,0.2,1v0L5.3,45.7L5.3,45.7z"/>
						<path class="st0" d="M10.7,43.8c-0.2,0-0.4,0-0.6,0.1c-0.2,0.1-0.4,0.2-0.6,0.3V44c0,0,0-0.1-0.1-0.1s-0.1-0.1-0.1-0.1H9
							c-0.1,0-0.1,0-0.1,0.1c0,0-0.1,0.1-0.1,0.1v4.2c0,0,0,0.1,0.1,0.1s0.1,0.1,0.1,0.1h0.4c0.1,0,0.1,0,0.1-0.1s0.1-0.1,0.1-0.1
							v-3.4c0.2-0.1,0.3-0.2,0.5-0.2s0.3-0.1,0.5-0.1c0.1,0,0.3,0,0.4,0c0.1,0,0.2,0.1,0.2,0.2c0.1,0.1,0.1,0.2,0.1,0.3
							c0,0.1,0.1,0.3,0.1,0.5v2.7c0,0,0,0.1,0.1,0.1c0,0,0.1,0.1,0.1,0.1h0.4c0.1,0,0.1,0,0.1-0.1s0.1-0.1,0.1-0.1v-2.7
							c0-0.5-0.1-1-0.3-1.3C11.5,43.9,11.2,43.8,10.7,43.8z"/>
						<path class="st0" d="M15.9,44.3c-0.1-0.2-0.3-0.3-0.5-0.4c-0.2-0.1-0.5-0.1-0.8-0.1c-0.6,0-1,0.2-1.3,0.5s-0.4,0.8-0.4,1.4
							v0.7c0,0.4,0.1,0.7,0.1,1c0.1,0.2,0.2,0.5,0.4,0.6s0.4,0.3,0.6,0.3c0.2,0.1,0.4,0.1,0.6,0.1c0.3,0,0.5,0,0.7,0
							c0.2,0,0.4-0.1,0.7-0.1c0.1,0,0.1,0,0.1-0.1c0,0,0-0.1,0-0.1v-0.3c0-0.1,0-0.1,0-0.1c0,0-0.1,0-0.1,0h0c-0.2,0-0.4,0-0.6,0.1
							s-0.5,0-0.7,0c-0.3,0-0.6-0.1-0.8-0.3c-0.2-0.2-0.3-0.5-0.3-1v-0.1h2.5c0.1,0,0.2,0,0.2-0.2v-0.4c0-0.3,0-0.6-0.1-0.8
							C16.2,44.7,16,44.5,15.9,44.3z M13.6,45.7c0-0.4,0.1-0.8,0.3-1s0.4-0.3,0.7-0.3c0.3,0,0.6,0.1,0.7,0.3c0.2,0.2,0.2,0.5,0.2,1
							v0L13.6,45.7C13.6,45.8,13.6,45.7,13.6,45.7z"/>
						<path class="st0" d="M18.9,43.8c-0.2,0-0.4,0-0.5,0.1c-0.2,0.1-0.3,0.2-0.5,0.3V44c0,0,0-0.1,0-0.1c0,0-0.1-0.1-0.1-0.1h-0.4
							c0,0-0.1,0-0.1,0.1c0,0,0,0.1,0,0.1v4.2c0,0,0,0.1,0,0.1c0,0,0.1,0.1,0.1,0.1h0.4c0,0,0.1,0,0.1-0.1c0,0,0-0.1,0-0.1l0-3.4
							c0.2-0.1,0.4-0.2,0.5-0.3s0.3-0.1,0.5-0.1s0.2-0.1,0.2-0.2v-0.3C19.1,43.8,19,43.8,18.9,43.8z"/>
						<path class="st0" d="M21.2,43.8c-0.3,0-0.5,0-0.7,0s-0.4,0-0.5,0.1c-0.1,0-0.2,0.1-0.2,0.2v0.3c0,0.1,0,0.1,0.1,0.1
							c0,0,0.1,0,0.1,0h0c0.1,0,0.3,0,0.5,0c0.2,0,0.4,0,0.7,0c0.3,0,0.5,0.1,0.6,0.2S22,45,22,45.3v0.3h-0.5c-0.3,0-0.6,0-0.9,0.1
							c-0.2,0-0.4,0.1-0.6,0.2s-0.3,0.3-0.3,0.4c-0.1,0.2-0.1,0.4-0.1,0.6v0.1c0,0.3,0,0.5,0.1,0.7c0.1,0.2,0.2,0.3,0.3,0.4
							c0.1,0.1,0.3,0.2,0.4,0.2s0.3,0.1,0.5,0.1c0.2,0,0.4,0,0.6-0.1c0.2-0.1,0.4-0.2,0.5-0.3v0.1c0,0,0,0.1,0,0.1
							c0,0,0.1,0.1,0.1,0.1h0.4c0,0,0.1,0,0.1-0.1c0,0,0-0.1,0-0.1v-2.8c0-0.5-0.1-0.9-0.4-1.2C22.1,43.9,21.7,43.8,21.2,43.8z
							 M20.3,47c0-0.1,0-0.3,0-0.4c0-0.1,0.1-0.2,0.2-0.2s0.2-0.1,0.4-0.1c0.1,0,0.4,0,0.6,0H22v1.3c-0.2,0.1-0.4,0.2-0.5,0.2
							c-0.2,0-0.3,0.1-0.5,0.1c-0.2,0-0.4,0-0.5-0.1s-0.2-0.3-0.2-0.6V47z"/>
						<path class="st0" d="M24.2,42.2h-0.4c0,0-0.1,0-0.1,0c0,0,0,0.1,0,0.1v5.8c0,0,0,0.1,0,0.1c0,0,0.1,0.1,0.1,0.1h0.4
							c0,0,0.1,0,0.1-0.1s0-0.1,0-0.1v-5.8c0,0,0-0.1,0-0.1C24.3,42.2,24.3,42.2,24.2,42.2z"/>
						<path class="st0" d="M30.1,42.8c0-0.1-0.1-0.2-0.1-0.3c-0.1-0.1-0.1-0.2-0.2-0.2c-0.1,0-0.1-0.1-0.2-0.1c-0.1,0-0.1,0-0.2,0
							c-0.1,0-0.1,0-0.2,0s-0.2,0-0.2,0.1c-0.1,0-0.1,0.1-0.2,0.2c-0.1,0.1-0.1,0.2-0.1,0.3l-1.4,5.3c0,0,0,0,0,0.1
							c0,0.1,0.1,0.2,0.2,0.2h0.5c0,0,0.1,0,0.1,0c0,0,0-0.1,0.1-0.1l0.5-1.9h2l0.5,1.9c0,0,0,0.1,0,0.1c0,0,0.1,0,0.1,0h0.5
							c0.1,0,0.2-0.1,0.2-0.2c0,0,0-0.1,0-0.1L30.1,42.8z M28.5,45.7l0.7-2.7c0-0.1,0.1-0.1,0.1-0.1s0.1,0,0.1,0.1l0.7,2.7H28.5z"/>
						<path class="st0" d="M35.2,43.8h-0.4c0,0-0.1,0-0.1,0.1s0,0.1,0,0.1v3.4c-0.2,0.1-0.3,0.2-0.5,0.2s-0.3,0.1-0.5,0.1
							c-0.2,0-0.3,0-0.4,0s-0.2-0.1-0.2-0.2c-0.1-0.1-0.1-0.2-0.2-0.3c0-0.1,0-0.3,0-0.5V44c0,0,0-0.1,0-0.1s-0.1-0.1-0.1-0.1h-0.4
							c0,0-0.1,0-0.1,0.1s0,0.1,0,0.1v2.7c0,0.5,0.1,1,0.3,1.3s0.6,0.5,1,0.5c0.2,0,0.4,0,0.6-0.1c0.2-0.1,0.4-0.2,0.6-0.3v0.1
							c0,0,0,0.1,0,0.1s0.1,0.1,0.1,0.1h0.4c0,0,0.1,0,0.1-0.1c0,0,0-0.1,0-0.1V44c0,0,0-0.1,0-0.1C35.3,43.8,35.3,43.8,35.2,43.8z"
							/>
						<path class="st0" d="M38,47.8h-0.4c-0.2,0-0.2,0-0.3-0.1c0,0-0.1-0.1-0.1-0.4v-2.8H38c0,0,0.1,0,0.1-0.1s0-0.1,0-0.1V44
							c0,0,0-0.1,0-0.1c0,0-0.1-0.1-0.1-0.1h-0.8v-0.9c0,0,0-0.1,0-0.1c0,0-0.1,0-0.1,0l-0.4,0.1c-0.1,0-0.2,0.1-0.2,0.2v4.3
							c0,0.2,0,0.4,0.1,0.6s0.1,0.3,0.2,0.3c0.1,0.1,0.2,0.1,0.3,0.2c0.1,0,0.3,0,0.5,0c0.1,0,0.2,0,0.2,0s0.2,0,0.3,0
							c0.1,0,0.2-0.1,0.2-0.2v-0.3C38.2,47.9,38.2,47.8,38,47.8z"/>
						<path class="st0" d="M41.8,44.2c-0.1-0.1-0.3-0.2-0.5-0.3c-0.2-0.1-0.4-0.1-0.6-0.1c-0.2,0-0.4,0-0.6,0.1
							c-0.2,0-0.4,0.1-0.6,0.2v-1.6c0,0,0-0.1,0-0.1s-0.1-0.1-0.1-0.1H39c0,0-0.1,0-0.1,0.1c0,0,0,0.1,0,0.1v5.8c0,0,0,0.1,0,0.1
							s0.1,0.1,0.1,0.1h0.4c0,0,0.1,0,0.1-0.1s0-0.1,0-0.1v-3.5c0.1,0,0.2-0.1,0.2-0.1c0.1,0,0.2,0,0.3-0.1c0.1,0,0.2,0,0.3,0
							c0.1,0,0.2,0,0.2,0c0.2,0,0.4,0.1,0.6,0.2c0.1,0.2,0.2,0.4,0.2,0.8v2.7c0,0,0,0.1,0,0.1c0,0,0.1,0.1,0.1,0.1H42
							c0,0,0.1,0,0.1-0.1s0-0.1,0-0.1v-2.7c0-0.3,0-0.6-0.1-0.8C42,44.5,41.9,44.3,41.8,44.2z"/>
						<path class="st0" d="M46,44.3c-0.2-0.2-0.3-0.3-0.5-0.4c-0.2-0.1-0.5-0.2-0.8-0.2c-0.3,0-0.5,0-0.8,0.2
							c-0.2,0.1-0.4,0.2-0.5,0.4c-0.2,0.2-0.3,0.4-0.3,0.6c-0.1,0.2-0.1,0.5-0.1,0.8v0.6c0,0.3,0,0.6,0.1,0.8s0.2,0.5,0.3,0.6
							s0.3,0.3,0.5,0.4c0.2,0.1,0.5,0.2,0.8,0.2s0.5,0,0.8-0.1c0.2-0.1,0.4-0.2,0.5-0.4c0.2-0.2,0.3-0.4,0.3-0.6
							c0.1-0.2,0.1-0.5,0.1-0.8v-0.6c0-0.3,0-0.6-0.1-0.8C46.2,44.7,46.1,44.5,46,44.3z M44.7,47.8c-0.3,0-0.6-0.1-0.8-0.3
							c-0.2-0.2-0.2-0.6-0.2-1v-0.6c0-0.4,0.1-0.8,0.2-1s0.4-0.3,0.8-0.3s0.6,0.1,0.8,0.3c0.2,0.2,0.2,0.6,0.2,1v0.6
							c0,0.4-0.1,0.8-0.2,1C45.3,47.6,45,47.8,44.7,47.8z"/>
						<path class="st0" d="M49,43.8c-0.2,0-0.4,0-0.5,0.1c-0.2,0.1-0.3,0.2-0.5,0.3V44c0,0,0-0.1,0-0.1s-0.1-0.1-0.1-0.1h-0.4
							c0,0-0.1,0-0.1,0.1c0,0,0,0.1,0,0.1v4.2c0,0,0,0.1,0,0.1s0.1,0.1,0.1,0.1h0.4c0,0,0.1,0,0.1-0.1s0-0.1,0-0.1l0-3.4
							c0.2-0.1,0.4-0.2,0.5-0.3s0.3-0.1,0.5-0.1s0.2-0.1,0.2-0.2v-0.3C49.2,43.8,49.1,43.8,49,43.8z"/>
						<path class="st0" d="M50.4,43.8h-0.4c0,0-0.1,0-0.1,0.1s0,0.1,0,0.1v4.2c0,0,0,0.1,0,0.1c0,0,0.1,0.1,0.1,0.1h0.4
							c0,0,0.1,0,0.1-0.1s0-0.1,0-0.1V44c0,0,0-0.1,0-0.1C50.5,43.8,50.5,43.8,50.4,43.8z"/>
						<path class="st0" d="M50.4,42.1h-0.4c0,0-0.1,0-0.1,0.1s0,0.1,0,0.1V43c0,0,0,0.1,0,0.1c0,0,0.1,0.1,0.1,0.1h0.4
							c0,0,0.1,0,0.1-0.1s0-0.1,0-0.1v-0.7c0,0,0-0.1,0-0.1S50.5,42.1,50.4,42.1z"/>
						<path class="st0" d="M53.2,47.8h-0.4c-0.2,0-0.2,0-0.3-0.1c0,0-0.1-0.1-0.1-0.4v-2.8h0.8c0,0,0.1,0,0.1-0.1s0-0.1,0-0.1V44
							c0,0,0-0.1,0-0.1c0,0-0.1-0.1-0.1-0.1h-0.8v-0.9c0,0,0-0.1,0-0.1c0,0-0.1,0-0.1,0l-0.4,0.1c-0.1,0-0.2,0.1-0.2,0.2v4.3
							c0,0.2,0,0.4,0.1,0.6c0,0.2,0.1,0.3,0.2,0.3c0.1,0.1,0.2,0.1,0.3,0.2c0.1,0,0.3,0,0.5,0c0.1,0,0.2,0,0.2,0s0.2,0,0.3,0
							c0.1,0,0.2-0.1,0.2-0.2v-0.3C53.4,47.9,53.4,47.8,53.2,47.8z"/>
						<path class="st0" d="M57.4,43.8h-0.4c0,0-0.1,0-0.1,0c0,0,0,0.1-0.1,0.1l-0.9,3.7h-0.1c0,0,0,0-0.1,0c0,0,0,0-0.1-0.1L54.7,44
							c0,0,0-0.1-0.1-0.1c0,0-0.1,0-0.1,0h-0.4C54,43.8,54,43.9,54,44c0,0,0,0.1,0,0.1l1,3.7c0,0.1,0.1,0.2,0.1,0.3
							c0,0.1,0.1,0.1,0.1,0.2s0.1,0.1,0.2,0.1c0.1,0,0.1,0,0.2,0h0.1l-0.1,0.3c0,0.1-0.1,0.2-0.1,0.3s-0.1,0.2-0.2,0.2
							s-0.1,0.1-0.2,0.1c-0.1,0-0.2,0-0.3,0c-0.1,0-0.2,0-0.3,0c-0.1,0-0.2,0-0.4,0c-0.2,0-0.2,0.1-0.2,0.2v0.3c0,0.1,0,0.1,0.1,0.1
							c0,0,0.1,0,0.1,0c0.1,0,0.2,0,0.3,0c0.1,0,0.2,0,0.3,0c0.2,0,0.4,0,0.6-0.1c0.2,0,0.3-0.1,0.4-0.2c0.1-0.1,0.2-0.2,0.3-0.4
							s0.1-0.3,0.2-0.6l1.3-4.7c0,0,0,0,0-0.1C57.5,43.9,57.5,43.8,57.4,43.8z"/>
						<path class="st0" d="M62,42.2c0,0-0.1,0-0.2,0s-0.2,0-0.3,0c-0.2,0-0.3,0-0.5,0c-0.1,0-0.3,0.1-0.3,0.2
							c-0.1,0.1-0.2,0.2-0.2,0.4c0,0.2-0.1,0.3-0.1,0.6v0.6h-0.7c0,0-0.1,0-0.1,0s0,0.1,0,0.1v0.2c0,0.1,0,0.2,0.2,0.2l0.7,0.1v3.7
							c0,0,0,0.1,0,0.1c0,0,0.1,0.1,0.1,0.1H61c0,0,0.1,0,0.1-0.1c0,0,0-0.1,0-0.1v-3.7H62c0.1,0,0.2-0.1,0.2-0.2V44
							c0,0,0-0.1,0-0.1c0,0-0.1,0-0.1,0h-0.8v-0.6c0-0.2,0-0.4,0.1-0.4s0.2-0.1,0.3-0.1H62c0.2,0,0.2-0.1,0.2-0.2v-0.3
							C62.2,42.2,62.1,42.2,62,42.2z"/>
						<path class="st0" d="M65.6,44.3c-0.1-0.2-0.3-0.3-0.6-0.4c-0.2-0.1-0.5-0.2-0.8-0.2c-0.3,0-0.5,0-0.8,0.2
							c-0.2,0.1-0.4,0.2-0.5,0.4c-0.2,0.2-0.3,0.4-0.3,0.6c-0.1,0.2-0.1,0.5-0.1,0.8v0.6c0,0.3,0,0.6,0.1,0.8s0.2,0.5,0.3,0.6
							s0.3,0.3,0.5,0.4c0.2,0.1,0.5,0.2,0.8,0.2s0.5,0,0.8-0.2c0.2-0.1,0.4-0.2,0.6-0.4c0.2-0.2,0.3-0.4,0.3-0.6s0.1-0.5,0.1-0.8
							v-0.6c0-0.3,0-0.6-0.1-0.8C65.9,44.7,65.8,44.5,65.6,44.3z M64.3,47.8c-0.3,0-0.6-0.1-0.8-0.3c-0.2-0.2-0.2-0.6-0.2-1v-0.6
							c0-0.4,0.1-0.8,0.2-1s0.4-0.3,0.8-0.3s0.6,0.1,0.8,0.3c0.2,0.2,0.2,0.6,0.2,1v0.6c0,0.4-0.1,0.8-0.2,1
							C64.9,47.6,64.7,47.8,64.3,47.8z"/>
						<path class="st0" d="M68.6,43.8c-0.2,0-0.4,0-0.5,0.1c-0.2,0.1-0.3,0.2-0.5,0.3V44c0,0,0-0.1-0.1-0.1c0,0-0.1-0.1-0.1-0.1H67
							c-0.1,0-0.1,0-0.1,0.1c0,0-0.1,0.1-0.1,0.1v4.2c0,0,0,0.1,0.1,0.1c0,0,0.1,0.1,0.1,0.1h0.4c0.1,0,0.1,0,0.1-0.1
							s0.1-0.1,0.1-0.1l0-3.4c0.2-0.1,0.4-0.2,0.5-0.3c0.2,0,0.3-0.1,0.5-0.1c0.2,0,0.2-0.1,0.2-0.2v-0.3
							C68.8,43.8,68.7,43.8,68.6,43.8z"/>
						<path class="st0" d="M74.2,45.9c-0.1-0.1-0.2-0.3-0.4-0.4c-0.2-0.1-0.3-0.3-0.6-0.4l-0.7-0.5c-0.3-0.2-0.5-0.3-0.6-0.5
							c-0.1-0.1-0.2-0.3-0.2-0.5c0-0.3,0.1-0.5,0.2-0.6s0.5-0.2,0.8-0.2c0.2,0,0.5,0,0.7,0c0.2,0,0.4,0,0.6,0c0.1,0,0.2-0.1,0.2-0.2
							v-0.3c0-0.1,0-0.2-0.2-0.2c-0.1,0-0.2,0-0.3,0c-0.1,0-0.2,0-0.3,0c-0.1,0-0.2,0-0.4,0c-0.1,0-0.2,0-0.4,0
							c-0.6,0-1.1,0.1-1.4,0.4c-0.3,0.2-0.5,0.6-0.5,1.1c0,0.3,0.1,0.6,0.3,0.9c0.2,0.2,0.4,0.5,0.8,0.7l0.8,0.5
							c0.2,0.1,0.3,0.2,0.4,0.3s0.2,0.2,0.3,0.2s0.1,0.2,0.2,0.2s0,0.2,0,0.3c0,0.1,0,0.3-0.1,0.4c0,0.1-0.1,0.2-0.2,0.3
							c-0.1,0.1-0.2,0.1-0.3,0.2s-0.3,0.1-0.6,0.1c-0.1,0-0.2,0-0.3,0l-0.3,0c-0.1,0-0.2,0-0.3,0c-0.1,0-0.2,0-0.3,0
							c0,0-0.1,0-0.1,0c0,0-0.1,0.1-0.1,0.1v0.3c0,0,0,0.1,0,0.1s0.1,0,0.1,0.1c0.2,0,0.4,0,0.6,0.1c0.2,0,0.4,0,0.7,0
							c0.4,0,0.7,0,0.9-0.1c0.2-0.1,0.4-0.2,0.6-0.4c0.1-0.2,0.2-0.3,0.3-0.5c0.1-0.2,0.1-0.4,0.1-0.6c0-0.2,0-0.3-0.1-0.5
							C74.4,46.2,74.3,46,74.2,45.9z"/>
						<path class="st0" d="M76.8,47.8h-0.4c-0.2,0-0.2,0-0.3-0.1c0,0-0.1-0.1-0.1-0.4v-2.8h0.8c0.1,0,0.1,0,0.1-0.1s0.1-0.1,0.1-0.1
							V44c0,0,0-0.1-0.1-0.1c0,0-0.1-0.1-0.1-0.1H76v-0.9c0,0,0-0.1,0-0.1s-0.1,0-0.1,0l-0.4,0.1c-0.1,0-0.2,0.1-0.2,0.2v4.3
							c0,0.2,0,0.4,0.1,0.6s0.1,0.3,0.2,0.3c0.1,0.1,0.2,0.1,0.3,0.2c0.1,0,0.3,0,0.5,0c0.1,0,0.2,0,0.2,0s0.2,0,0.3,0
							c0.1,0,0.2-0.1,0.2-0.2v-0.3C77,47.9,76.9,47.8,76.8,47.8z"/>
						<path class="st0" d="M79.2,43.8c-0.3,0-0.5,0-0.7,0s-0.4,0-0.5,0.1c-0.2,0-0.2,0.1-0.2,0.2v0.3c0,0.1,0,0.1,0.1,0.1
							c0,0,0.1,0,0.1,0h0c0.2,0,0.3,0,0.5,0c0.2,0,0.4,0,0.7,0c0.3,0,0.5,0.1,0.6,0.2S80,45,80,45.3v0.3h-0.5c-0.3,0-0.6,0-0.9,0.1
							c-0.2,0-0.4,0.1-0.6,0.2s-0.3,0.3-0.3,0.4c-0.1,0.2-0.1,0.4-0.1,0.6v0.1c0,0.3,0,0.5,0.1,0.7c0.1,0.2,0.2,0.3,0.3,0.4
							c0.1,0.1,0.3,0.2,0.4,0.2s0.3,0.1,0.5,0.1c0.2,0,0.4,0,0.6-0.1c0.2-0.1,0.4-0.2,0.5-0.3v0.1c0,0,0,0.1,0.1,0.1
							c0,0,0.1,0.1,0.1,0.1h0.3c0.1,0,0.1,0,0.1-0.1s0.1-0.1,0.1-0.1v-2.8c0-0.5-0.1-0.9-0.4-1.2C80.1,43.9,79.7,43.8,79.2,43.8z
							 M78.3,47c0-0.1,0-0.3,0.1-0.4c0-0.1,0.1-0.2,0.2-0.2s0.2-0.1,0.3-0.1c0.2,0,0.3,0,0.6,0H80v1.3c-0.2,0.1-0.3,0.2-0.5,0.2
							c-0.2,0-0.3,0.1-0.5,0.1c-0.2,0-0.4,0-0.5-0.1c-0.1-0.1-0.2-0.3-0.2-0.6L78.3,47L78.3,47z"/>
						<path class="st0" d="M83.2,47.8h-0.4c-0.2,0-0.2,0-0.3-0.1c0,0-0.1-0.1-0.1-0.4v-2.8h0.8c0.1,0,0.1,0,0.1-0.1s0.1-0.1,0.1-0.1
							V44c0,0,0-0.1-0.1-0.1c0,0-0.1-0.1-0.1-0.1h-0.8v-0.9c0,0,0-0.1,0-0.1s-0.1,0-0.1,0l-0.4,0.1c-0.1,0-0.2,0.1-0.2,0.2v4.3
							c0,0.2,0,0.4,0.1,0.6c0,0.2,0.1,0.3,0.2,0.3c0.1,0.1,0.2,0.1,0.3,0.2c0.1,0,0.3,0,0.5,0c0.1,0,0.2,0,0.2,0s0.2,0,0.3,0
							c0.1,0,0.2-0.1,0.2-0.2v-0.3C83.4,47.9,83.4,47.8,83.2,47.8z"/>
						<path class="st0" d="M84.7,42.1h-0.4c-0.1,0-0.1,0-0.1,0.1s-0.1,0.1-0.1,0.1V43c0,0,0,0.1,0.1,0.1c0,0,0.1,0.1,0.1,0.1h0.4
							c0.1,0,0.1,0,0.1-0.1s0.1-0.1,0.1-0.1v-0.7c0,0,0-0.1-0.1-0.1C84.8,42.1,84.7,42.1,84.7,42.1z"/>
						<path class="st0" d="M84.7,43.8h-0.4c-0.1,0-0.1,0-0.1,0.1S84.1,44,84.1,44v4.2c0,0,0,0.1,0.1,0.1c0,0,0.1,0.1,0.1,0.1h0.4
							c0.1,0,0.1,0,0.1-0.1s0.1-0.1,0.1-0.1V44c0,0,0-0.1-0.1-0.1C84.8,43.8,84.7,43.8,84.7,43.8z"/>
						<path class="st0" d="M87.6,46l-0.8-0.5c-0.2-0.1-0.3-0.2-0.4-0.3s-0.1-0.2-0.1-0.3c0-0.2,0.1-0.3,0.2-0.4
							c0.1,0,0.3-0.1,0.5-0.1s0.4,0,0.7,0c0.2,0,0.4,0,0.6,0c0.1,0,0.2-0.1,0.2-0.2v-0.3c0-0.1,0-0.2-0.2-0.2
							c-0.2,0-0.4-0.1-0.6-0.1c-0.2,0-0.4,0-0.6,0c-0.2,0-0.4,0-0.6,0s-0.3,0.1-0.4,0.2s-0.2,0.2-0.3,0.3c-0.1,0.1-0.1,0.3-0.1,0.5
							c0,0.3,0.1,0.5,0.2,0.7c0.1,0.2,0.3,0.4,0.6,0.5l0.8,0.5c0.2,0.1,0.4,0.3,0.4,0.3c0.1,0.1,0.1,0.2,0.1,0.3
							c0,0.2-0.1,0.3-0.2,0.4s-0.3,0.1-0.6,0.1c-0.1,0-0.2,0-0.2,0c-0.1,0-0.2,0-0.3,0c-0.1,0-0.2,0-0.3,0s-0.2,0-0.3,0h0
							c-0.1,0-0.1,0-0.1,0c0,0-0.1,0.1-0.1,0.1v0.3c0,0.1,0,0.2,0.2,0.2c0.1,0,0.2,0,0.3,0.1c0.1,0,0.2,0,0.3,0c0.1,0,0.2,0,0.3,0
							s0.2,0,0.3,0c0.2,0,0.4,0,0.6-0.1c0.2,0,0.3-0.1,0.5-0.2c0.1-0.1,0.2-0.2,0.3-0.4s0.1-0.3,0.1-0.5c0-0.2-0.1-0.5-0.2-0.7
							C88.2,46.4,88,46.2,87.6,46z"/>
						<path class="st0" d="M90.8,47.8h-0.4c-0.2,0-0.2,0-0.3-0.1c0,0-0.1-0.1-0.1-0.4v-2.8h0.8c0.1,0,0.1,0,0.1-0.1s0.1-0.1,0.1-0.1
							V44c0,0,0-0.1-0.1-0.1c0,0-0.1-0.1-0.1-0.1H90v-0.9c0,0,0-0.1,0-0.1s-0.1,0-0.1,0l-0.4,0.1c-0.1,0-0.2,0.1-0.2,0.2v4.3
							c0,0.2,0,0.4,0.1,0.6c0,0.2,0.1,0.3,0.2,0.3c0.1,0.1,0.2,0.1,0.3,0.2c0.1,0,0.3,0,0.5,0c0.1,0,0.2,0,0.2,0s0.2,0,0.3,0
							c0.1,0,0.2-0.1,0.2-0.2v-0.3C91,47.9,91,47.8,90.8,47.8z"/>
						<path class="st0" d="M92.3,43.8h-0.4c-0.1,0-0.1,0-0.1,0.1S91.7,44,91.7,44v4.2c0,0,0,0.1,0.1,0.1c0,0,0.1,0.1,0.1,0.1h0.4
							c0.1,0,0.1,0,0.1-0.1s0.1-0.1,0.1-0.1V44c0,0,0-0.1-0.1-0.1C92.4,43.8,92.3,43.8,92.3,43.8z"/>
						<path class="st0" d="M92.3,42.1h-0.4c-0.1,0-0.1,0-0.1,0.1s-0.1,0.1-0.1,0.1V43c0,0,0,0.1,0.1,0.1c0,0,0.1,0.1,0.1,0.1h0.4
							c0.1,0,0.1,0,0.1-0.1s0.1-0.1,0.1-0.1v-0.7c0,0,0-0.1-0.1-0.1C92.4,42.2,92.3,42.1,92.3,42.1z"/>
						<path class="st0" d="M95.9,43.9c-0.1,0-0.3,0-0.4-0.1c-0.2,0-0.3,0-0.5,0c-0.3,0-0.5,0-0.7,0.2c-0.2,0.1-0.4,0.2-0.5,0.4
							s-0.2,0.4-0.3,0.6s-0.1,0.5-0.1,0.8v0.6c0,0.3,0,0.6,0.1,0.8s0.2,0.5,0.3,0.6c0.1,0.2,0.3,0.3,0.5,0.4
							c0.2,0.1,0.4,0.2,0.7,0.2c0.2,0,0.4,0,0.5,0c0.2,0,0.3,0,0.4-0.1c0.1,0,0.1,0,0.1-0.1c0,0,0-0.1,0-0.1v-0.3
							c0-0.1,0-0.1-0.1-0.1c0,0-0.1,0-0.1,0h0c-0.2,0-0.3,0-0.5,0c-0.1,0-0.3,0-0.5,0c-0.3,0-0.5-0.1-0.7-0.3s-0.2-0.5-0.2-1v-0.6
							c0-0.5,0.1-0.8,0.2-1c0.2-0.2,0.4-0.3,0.7-0.3c0.2,0,0.3,0,0.5,0s0.3,0,0.5,0h0c0,0,0.1,0,0.1,0c0,0,0.1,0,0.1-0.1v-0.3
							c0-0.1,0-0.1,0-0.2C96.1,43.9,96,43.9,95.9,43.9z"/>
						<path class="st0" d="M98.8,46L98,45.5c-0.2-0.1-0.3-0.2-0.4-0.3s-0.1-0.2-0.1-0.3c0-0.2,0.1-0.3,0.2-0.4
							c0.1,0,0.3-0.1,0.5-0.1s0.4,0,0.7,0c0.2,0,0.4,0,0.6,0c0.1,0,0.2-0.1,0.2-0.2v-0.3c0-0.1,0-0.2-0.2-0.2
							c-0.2,0-0.4-0.1-0.6-0.1c-0.2,0-0.4,0-0.6,0c-0.2,0-0.4,0-0.6,0s-0.3,0.1-0.4,0.2s-0.2,0.2-0.3,0.3c-0.1,0.1-0.1,0.3-0.1,0.5
							c0,0.3,0.1,0.5,0.2,0.7c0.1,0.2,0.3,0.4,0.6,0.5l0.8,0.5c0.2,0.1,0.4,0.3,0.4,0.3c0.1,0.1,0.1,0.2,0.1,0.3
							c0,0.2-0.1,0.3-0.2,0.4s-0.3,0.1-0.6,0.1c-0.1,0-0.2,0-0.2,0c-0.1,0-0.2,0-0.3,0c-0.1,0-0.2,0-0.3,0s-0.2,0-0.3,0h0
							c-0.1,0-0.1,0-0.1,0c0,0-0.1,0.1-0.1,0.1v0.3c0,0.1,0,0.2,0.2,0.2c0.1,0,0.2,0,0.3,0.1c0.1,0,0.2,0,0.3,0c0.1,0,0.2,0,0.3,0
							s0.2,0,0.3,0c0.2,0,0.4,0,0.6-0.1c0.2,0,0.3-0.1,0.5-0.2c0.1-0.1,0.2-0.2,0.3-0.4s0.1-0.3,0.1-0.5c0-0.2-0.1-0.5-0.2-0.7
							C99.3,46.4,99.1,46.2,98.8,46z"/>
					</g>
				</g>
			</g>
			<path class="st0" d="M117.4,42.3c-0.4,0-0.7,0.3-0.7,0.7v3.5c0,0.4,0.3,0.7,0.7,0.7c0.4,0,0.7-0.3,0.7-0.7V43
				C118.1,42.6,117.8,42.3,117.4,42.3z"/>
			<path class="st0" d="M114.8,44.9c-0.3,0-0.6,0.3-0.6,0.6v2.4c0,0.3,0.2,0.6,0.6,0.6s0.6-0.3,0.6-0.6v-2.4
				C115.3,45.2,115.1,44.9,114.8,44.9z"/>
			<path class="st0" d="M120.2,36.9c-0.4,0-0.8,0.4-0.8,0.8v7.4c0,0.5,0.3,0.8,0.8,0.8c0.4,0,0.8-0.4,0.8-0.8v-7.4
				C121,37.3,120.6,36.9,120.2,36.9z"/>
			<path class="st0" d="M114.8,34.2c-0.4,0-0.7,0.3-0.7,0.7v3.5c0,0.4,0.3,0.7,0.7,0.7c0.4,0,0.7-0.3,0.7-0.7v-3.5
				C115.4,34.5,115.1,34.2,114.8,34.2z"/>
			<path class="st0" d="M117.4,35.5c-0.1,0-0.1,0-0.2,0c-0.1,0-0.1,0-0.1,0c-0.3,0.1-0.4,0.4-0.4,0.7v4.3c0,0.3,0.2,0.6,0.5,0.7
				c0,0,0,0,0.1,0c0,0,0.1,0,0.1,0c0.1,0,0.1,0,0.1,0c0.4,0,0.7-0.3,0.7-0.8v-4.3C118.1,35.8,117.8,35.5,117.4,35.5z"/>
			<path class="st0" d="M112.3,32.9c-0.3,0-0.6,0.3-0.6,0.6v2.8c0,0.3,0.3,0.6,0.6,0.6c0.3,0,0.6-0.3,0.6-0.6v-2.8
				C112.8,33.2,112.6,32.9,112.3,32.9z"/>
			<path class="st0" d="M109.8,31.8c-0.3,0-0.5,0.3-0.5,0.6v2.2c0,0.3,0.2,0.6,0.5,0.6s0.5-0.2,0.5-0.6v-2.2
				C110.4,32,110.1,31.8,109.8,31.8z"/>
			<path class="st0" d="M107.6,30.7c-0.2,0-0.4,0.2-0.4,0.5v1.7c0,0.2,0.2,0.5,0.4,0.5s0.4-0.2,0.4-0.5v-1.7
				C108.1,30.9,107.9,30.7,107.6,30.7z"/>
			<path class="st0" d="M123.1,38.3c-0.4,0-0.8,0.4-0.8,0.8v4.9c0,0.5,0.3,0.8,0.8,0.8c0.4,0,0.8-0.4,0.8-0.8v-4.9
				C123.9,38.7,123.6,38.3,123.1,38.3z"/>
			<path class="st0" d="M128.9,42.3c0.4,0,0.7,0.3,0.7,0.7v3.5c0,0.4-0.3,0.7-0.7,0.7c-0.4,0-0.7-0.3-0.7-0.7V43
				C128.2,42.6,128.5,42.3,128.9,42.3z"/>
			<path class="st0" d="M131.5,44.9c0.3,0,0.6,0.3,0.6,0.6v2.4c0,0.3-0.2,0.6-0.6,0.6s-0.6-0.3-0.6-0.6v-2.4
				C131,45.2,131.2,44.9,131.5,44.9z"/>
			<path class="st0" d="M126.1,36.9c0.4,0,0.8,0.4,0.8,0.8v7.4c0,0.5-0.3,0.8-0.8,0.8c-0.4,0-0.8-0.4-0.8-0.8v-7.4
				C125.3,37.3,125.7,36.9,126.1,36.9z"/>
			<path class="st0" d="M131.5,34.2c0.4,0,0.7,0.3,0.7,0.7v3.5c0,0.4-0.3,0.7-0.7,0.7c-0.4,0-0.7-0.3-0.7-0.7v-3.5
				C130.9,34.5,131.2,34.2,131.5,34.2z"/>
			<path class="st0" d="M128.9,35.5c0.1,0,0.1,0,0.1,0c0.1,0,0.1,0,0.1,0c0.3,0.1,0.4,0.4,0.4,0.7v4.3c0,0.3-0.2,0.6-0.5,0.7
				c0,0,0,0-0.1,0c0,0-0.1,0-0.1,0c-0.1,0-0.1,0-0.1,0c-0.4,0-0.7-0.3-0.7-0.8v-4.3C128.1,35.8,128.5,35.5,128.9,35.5z"/>
			<g>
				<path class="st0" d="M114.8,1.8c0.4,0,0.7,0.3,0.7,0.7v2.3c0,0.4-0.3,0.7-0.7,0.7c-0.4,0-0.7-0.3-0.7-0.7V2.5
					C114.1,2.1,114.4,1.8,114.8,1.8z"/>
				<path class="st0" d="M114.8,27.9c0.4,0,0.7-0.3,0.7-0.7v-2.3c0-0.4-0.3-0.7-0.7-0.7c-0.4,0-0.7,0.3-0.7,0.7v2.3
					C114.1,27.6,114.4,27.9,114.8,27.9z"/>
				<path class="st0" d="M131.5,1.8c-0.4,0-0.7,0.3-0.7,0.7v2.3c0,0.4,0.3,0.7,0.7,0.7c0.4,0,0.7-0.3,0.7-0.7V2.5
					C132.2,2.1,131.9,1.8,131.5,1.8z"/>
				<path class="st0" d="M131.5,27.9c-0.4,0-0.7-0.3-0.7-0.7v-2.3c0-0.4,0.3-0.7,0.7-0.7c0.4,0,0.7,0.3,0.7,0.7v2.3
					C132.2,27.6,131.9,27.9,131.5,27.9z"/>
			</g>
			<g>
				<path class="st0" d="M120.2,5.9c0.4,0,0.8,0.4,0.8,0.8V23c0,0.5-0.3,0.8-0.8,0.8c-0.4,0-0.8-0.4-0.8-0.8V6.7
					C119.4,6.3,119.8,5.9,120.2,5.9z"/>
				<path class="st0" d="M114.8,9c0.4,0,0.7,0.3,0.7,0.7v3.6c0,0.4-0.3,0.7-0.7,0.7c-0.4,0-0.7-0.3-0.7-0.7V9.7
					C114.1,9.3,114.4,9,114.8,9z"/>
				<path class="st0" d="M117.1,3.8c0,0,0.1,0,0.1,0c0.1,0,0.1,0,0.2,0c0.4,0,0.7,0.3,0.7,0.8v20.7c0,0.4-0.3,0.8-0.7,0.8
					c0,0-0.1,0-0.1,0c0,0,0,0-0.1,0s-0.1,0-0.1,0c-0.3-0.1-0.5-0.4-0.5-0.7V4.5C116.7,4.2,116.9,3.9,117.1,3.8z"/>
				<path class="st0" d="M112.2,8.2c0.3,0,0.6,0.3,0.6,0.6v3c0,0.4-0.3,0.6-0.6,0.6c-0.3,0-0.6-0.3-0.6-0.6v-3
					C111.7,8.5,111.9,8.2,112.2,8.2z"/>
				<path class="st0" d="M109.8,7.5c0.3,0,0.5,0.2,0.5,0.6v2.3c0,0.3-0.2,0.6-0.5,0.6s-0.5-0.2-0.5-0.6V8
					C109.3,7.7,109.6,7.5,109.8,7.5z"/>
				<path class="st0" d="M120.2,23.8c0.4,0,0.8-0.4,0.8-0.8V6.7c0-0.5-0.3-0.8-0.8-0.8c-0.4,0-0.8,0.4-0.8,0.8V23
					C119.4,23.4,119.8,23.8,120.2,23.8z"/>
				<path class="st0" d="M114.8,20.7c0.4,0,0.7-0.3,0.7-0.7v-3.6c0-0.4-0.3-0.7-0.7-0.7c-0.4,0-0.7,0.3-0.7,0.7V20
					C114.1,20.4,114.4,20.7,114.8,20.7z"/>
				<path class="st0" d="M112.2,21.5c0.3,0,0.6-0.3,0.6-0.6v-3c0-0.4-0.3-0.6-0.6-0.6c-0.3,0-0.6,0.3-0.6,0.6v3
					C111.7,21.2,111.9,21.5,112.2,21.5z"/>
				<path class="st0" d="M109.8,22.2c0.3,0,0.5-0.2,0.5-0.6v-2.3c0-0.3-0.2-0.6-0.5-0.6s-0.5,0.2-0.5,0.6v2.3
					C109.3,22,109.6,22.2,109.8,22.2z"/>
				<path class="st0" d="M126.1,5.9c-0.4,0-0.8,0.4-0.8,0.8V23c0,0.5,0.3,0.8,0.8,0.8c0.4,0,0.8-0.4,0.8-0.8V6.7
					C126.9,6.3,126.5,5.9,126.1,5.9z"/>
				<path class="st0" d="M131.5,9c-0.4,0-0.7,0.3-0.7,0.7v3.6c0,0.4,0.3,0.7,0.7,0.7c0.4,0,0.7-0.3,0.7-0.7V9.7
					C132.2,9.3,131.9,9,131.5,9z"/>
				<path class="st0" d="M129.1,3.8c0,0-0.1,0-0.1,0s-0.1,0-0.1,0c-0.4,0-0.7,0.3-0.7,0.8v20.7c0,0.4,0.3,0.8,0.7,0.8
					c0,0,0.1,0,0.1,0c0,0,0,0,0.1,0s0.1,0,0.1,0c0.3-0.1,0.5-0.4,0.5-0.7V4.5C129.6,4.2,129.4,3.9,129.1,3.8z"/>
				<path class="st0" d="M134,8.2c-0.3,0-0.6,0.3-0.6,0.6v3c0,0.4,0.3,0.6,0.6,0.6c0.3,0,0.6-0.3,0.6-0.6v-3
					C134.6,8.5,134.4,8.2,134,8.2z"/>
				<path class="st0" d="M136.4,7.5c-0.3,0-0.5,0.2-0.5,0.6v2.3c0,0.3,0.2,0.6,0.5,0.6s0.5-0.2,0.5-0.6V8
					C137,7.7,136.7,7.5,136.4,7.5z"/>
				<path class="st0" d="M126.1,23.8c-0.4,0-0.8-0.4-0.8-0.8V6.7c0-0.5,0.3-0.8,0.8-0.8c0.4,0,0.8,0.4,0.8,0.8V23
					C126.9,23.4,126.5,23.8,126.1,23.8z"/>
				<path class="st0" d="M131.5,20.7c-0.4,0-0.7-0.3-0.7-0.7v-3.6c0-0.4,0.3-0.7,0.7-0.7c0.4,0,0.7,0.3,0.7,0.7V20
					C132.2,20.4,131.9,20.7,131.5,20.7z"/>
				<path class="st0" d="M134,21.5c-0.3,0-0.6-0.3-0.6-0.6v-3c0-0.4,0.3-0.6,0.6-0.6c0.3,0,0.6,0.3,0.6,0.6v3
					C134.6,21.2,134.4,21.5,134,21.5z"/>
				<path class="st0" d="M136.4,22.2c-0.3,0-0.5-0.2-0.5-0.6v-2.3c0-0.3,0.2-0.6,0.5-0.6s0.5,0.2,0.5,0.6v2.3
					C137,22,136.7,22.2,136.4,22.2z"/>
			</g>
			<path class="st0" d="M123.1,0c-0.4,0-0.8,0.4-0.8,0.8v34.5c0,0.5,0.3,0.8,0.8,0.8c0.4,0,0.8-0.4,0.8-0.8V0.8
				C123.9,0.4,123.6,0,123.1,0z"/>
		</g>
	</g>
	<g>
		<g>
			<path class="st0" d="M224.9,14.2L224.9,14.2c-0.7,0-1.3-0.6-1.3-1.3V6.7c0-0.7,0.6-1.3,1.3-1.3c0.7,0,1.3,0.6,1.3,1.3v6.2
				C226.2,13.6,225.7,14.2,224.9,14.2"/>
			<path class="st0" d="M229.5,17.9L229.5,17.9c-0.7,0-1.3-0.6-1.3-1.3V3.9c0-0.7,0.6-1.3,1.3-1.3c0.7,0,1.3,0.6,1.3,1.3v12.8
				C230.7,17.4,230.2,17.9,229.5,17.9"/>
			<path class="st0" d="M233.8,24.1L233.8,24.1c-0.7,0-1.3-0.6-1.3-1.3V1.3c0-0.7,0.6-1.3,1.3-1.3c0.7,0,1.3,0.6,1.3,1.3v21.5
				C235.1,23.5,234.6,24.1,233.8,24.1"/>
			<path class="st0" d="M238.2,31.4L238.2,31.4c-0.7,0-1.3-0.6-1.3-1.3V1.3c0-0.7,0.6-1.3,1.3-1.3c0.7,0,1.3,0.6,1.3,1.3v28.8
				C239.5,30.8,239,31.4,238.2,31.4"/>
			<path class="st0" d="M247.1,42L247.1,42c-0.7,0-1.3-0.6-1.3-1.3V7.6c0-0.7,0.6-1.3,1.3-1.3c0.7,0,1.3,0.6,1.3,1.3v33.1
				C248.4,41.4,247.9,42,247.1,42"/>
			<path class="st0" d="M242.7,38L242.7,38c-0.7,0-1.3-0.6-1.3-1.3V4.6c0-0.7,0.6-1.3,1.3-1.3c0.7,0,1.3,0.6,1.3,1.3v32.1
				C244,37.4,243.4,38,242.7,38"/>
			<path class="st0" d="M251.5,44.3L251.5,44.3c-0.7,0-1.3-0.6-1.3-1.3V8.1c0-0.7,0.6-1.3,1.3-1.3c0.7,0,1.3,0.6,1.3,1.3V43
				C252.8,43.8,252.2,44.3,251.5,44.3"/>
			<path class="st0" d="M255.9,44.8L255.9,44.8c-0.7,0-1.3-0.6-1.3-1.3V7.7c0-0.7,0.6-1.3,1.3-1.3c0.7,0,1.3,0.6,1.3,1.3v35.8
				C257.2,44.2,256.6,44.8,255.9,44.8"/>
			<path class="st0" d="M260.4,39L260.4,39c-0.7,0-1.3-0.6-1.3-1.3V12.4c0-0.7,0.6-1.3,1.3-1.3c0.7,0,1.3,0.6,1.3,1.3v25.3
				C261.7,38.5,261.1,39,260.4,39"/>
			<path class="st0" d="M264.8,36.8L264.8,36.8c-0.7,0-1.3-0.6-1.3-1.3V18.2c0-0.7,0.6-1.3,1.3-1.3c0.7,0,1.3,0.6,1.3,1.3v17.3
				C266.1,36.2,265.5,36.8,264.8,36.8"/>
			<path class="st0" d="M269.2,36L269.2,36c-0.7,0-1.3-0.6-1.3-1.3V23.8c0-0.7,0.6-1.3,1.3-1.3c0.7,0,1.3,0.6,1.3,1.3v10.9
				C270.5,35.4,269.9,36,269.2,36"/>
			<path class="st0" d="M273.7,35.5L273.7,35.5c-0.7,0-1.3-0.6-1.3-1.3v-7.4c0-0.7,0.6-1.3,1.3-1.3c0.7,0,1.3,0.6,1.3,1.3v7.4
				C275,35,274.4,35.5,273.7,35.5"/>
			<path class="st0" d="M278,33.6L278,33.6c-0.7,0-1.3-0.6-1.3-1.3v-4.2c0-0.7,0.6-1.3,1.3-1.3c0.7,0,1.3,0.6,1.3,1.3v4.2
				C279.3,33,278.7,33.6,278,33.6"/>
		</g>
		<g>
			<path class="st0" d="M160.2,25.5h-0.7c-0.1,0-0.1,0-0.2,0.1c-0.1,0-0.1,0.1-0.1,0.2v0.8c0,0.1,0,0.1,0.1,0.1
				c0.1,0,0.1,0.1,0.2,0.1h0.7c0.1,0,0.1,0,0.2-0.1s0.1-0.1,0.1-0.1v-0.8c0-0.1,0-0.1-0.1-0.2C160.3,25.5,160.3,25.5,160.2,25.5z"/>
			<path class="st0" d="M161.8,24.5c0.1,0,0.1-0.1,0.2-0.1s0.1-0.1,0.1-0.2c0-0.2,0-0.4,0-0.7c0-0.3,0-0.7,0-1.1c0-0.2,0-0.4,0-0.5
				c0-0.1,0-0.3,0-0.5s0-0.3,0-0.5c0-0.2,0-0.4,0-0.6c0-0.1,0-0.1-0.1-0.1c0,0-0.1-0.1-0.2-0.1H161c-0.1,0-0.1,0-0.1,0.1
				c0,0-0.1,0.1-0.1,0.1c0,0.5,0,1,0,1.4c0,0.4,0,0.9,0,1.3c0,0.2,0,0.3-0.1,0.3c-0.1,0-0.2,0-0.3,0h-0.6h-0.1h-0.2
				c-0.2,0-0.4,0-0.5-0.1s-0.2-0.2-0.2-0.5v-2.9c0-0.1,0-0.1,0-0.1c0,0-0.1,0-0.1-0.1c-0.2,0-0.4-0.1-0.7-0.1s-0.6,0-0.8,0
				c-0.9,0-1.6,0.2-2.1,0.7c-0.5,0.5-0.7,1.1-0.7,1.9v0.2c0,0.4,0.1,0.7,0.2,1s0.3,0.5,0.5,0.7s0.4,0.3,0.7,0.4
				c0.3,0.1,0.5,0.1,0.8,0.1h0.1c0.2,0,0.5,0,0.7-0.1c0.2-0.1,0.4-0.2,0.6-0.3c0.1,0.2,0.3,0.4,0.5,0.5s0.5,0.1,0.9,0.1h0.4h0.1h0.4
				c0.1,0,0.3,0,0.5,0c0.2,0,0.3,0,0.5,0s0.3,0,0.4,0C161.7,24.5,161.8,24.5,161.8,24.5z M157.5,22.6c0,0.2-0.1,0.3-0.2,0.4
				c-0.1,0.1-0.3,0.1-0.6,0.1h-0.2c-0.3,0-0.6-0.1-0.7-0.2c-0.1-0.2-0.2-0.5-0.2-0.9v-0.1c0-0.4,0.1-0.7,0.4-0.9s0.6-0.3,1-0.3
				c0.1,0,0.1,0,0.3,0c0.1,0,0.2,0,0.2,0L157.5,22.6L157.5,22.6z"/>
			<path class="st0" d="M221.7,17.6c-0.1,0-0.1-0.1-0.2-0.1h-0.7c-0.1,0-0.1,0-0.2,0.1s-0.1,0.1-0.1,0.2v0.8c0,0.1,0,0.1,0.1,0.2
				c0.1,0,0.1,0.1,0.2,0.1h0.7c0.1,0,0.1,0,0.2-0.1c0.1,0,0.1-0.1,0.1-0.2v-0.8C221.8,17.7,221.8,17.7,221.7,17.6z"/>
			<path class="st0" d="M155.4,18.4h0.7c0.1,0,0.1,0,0.2-0.1s0.1-0.1,0.1-0.2v-0.8c0-0.1,0-0.1-0.1-0.2c-0.1,0-0.1-0.1-0.2-0.1h-0.7
				c-0.1,0-0.1,0-0.2,0.1c-0.1,0-0.1,0.1-0.1,0.2v0.8c0,0.1,0,0.1,0.1,0.2C155.2,18.4,155.3,18.4,155.4,18.4z"/>
			<path class="st0" d="M218.9,18.9h0.7c0.1,0,0.1,0,0.2-0.1s0.1-0.1,0.1-0.2v-0.8c0-0.1,0-0.1-0.1-0.2c-0.1,0-0.1-0.1-0.2-0.1h-0.7
				c-0.1,0-0.1,0-0.2,0.1c-0.1,0-0.1,0.1-0.1,0.2v0.8c0,0.1,0,0.1,0.1,0.2C218.7,18.8,218.8,18.9,218.9,18.9z"/>
			<path class="st0" d="M205.7,16.5h-0.9c-0.1,0-0.1,0-0.1,0.1c0,0-0.1,0.1-0.1,0.1v7.6c0,0.1,0,0.1,0.1,0.1c0,0,0.1,0.1,0.1,0.1
				h0.9c0.1,0,0.1,0,0.1-0.1s0.1-0.1,0.1-0.1v-7.6c0-0.1,0-0.1-0.1-0.1S205.7,16.5,205.7,16.5z"/>
			<path class="st0" d="M157.3,18.4h0.7c0.1,0,0.1,0,0.2-0.1c0.1,0,0.1-0.1,0.1-0.2v-0.8c0-0.1,0-0.1-0.1-0.2
				c-0.1,0-0.1-0.1-0.2-0.1h-0.7c-0.1,0-0.1,0-0.2,0.1s-0.1,0.1-0.1,0.2v0.8c0,0.1,0,0.1,0.1,0.2C157.2,18.4,157.2,18.4,157.3,18.4z
				"/>
			<path class="st0" d="M162.2,25.5h-0.7c-0.1,0-0.1,0-0.2,0.1s-0.1,0.1-0.1,0.2v0.8c0,0.1,0,0.1,0.1,0.1c0.1,0,0.1,0.1,0.2,0.1h0.7
				c0.1,0,0.1,0,0.2-0.1c0.1,0,0.1-0.1,0.1-0.1v-0.8c0-0.1,0-0.1-0.1-0.2C162.3,25.5,162.2,25.5,162.2,25.5z"/>
			<path class="st0" d="M191.5,16.5h-1c-0.1,0-0.1,0-0.1,0.1c0,0-0.1,0.1-0.1,0.2v6.1c0,0.2,0,0.3-0.1,0.3c-0.1,0-0.2,0-0.3,0h-0.6
				h-0.1H189c-0.1,0-0.1,0-0.2,0c-0.1,0-0.1,0-0.2,0c-0.1,0-0.1,0-0.2-0.1c-0.1,0-0.1,0-0.1-0.1V20c0-0.1,0-0.1-0.1-0.2
				c0,0-0.1-0.1-0.1-0.1h-0.9c-0.1,0-0.1,0-0.1,0.1c0,0-0.1,0.1-0.1,0.2v3c0,0.1,0,0.1-0.1,0.2c0,0-0.1,0.1-0.1,0.1s-0.1,0-0.2,0
				c-0.1,0-0.1,0-0.2,0h-0.1c-0.1,0-0.3,0-0.4,0s-0.2-0.1-0.3-0.2v-2.7c0-0.1,0-0.1-0.1-0.1c0,0-0.1-0.1-0.1-0.1h-0.9
				c-0.1,0-0.1,0-0.1,0.1c0,0-0.1,0.1-0.1,0.1v2.6c0,0.1,0,0.1-0.1,0.2c0,0-0.1,0.1-0.1,0.1c-0.1,0-0.1,0-0.2,0c-0.1,0-0.1,0-0.2,0
				h-0.1c-0.1,0-0.1,0-0.2,0c-0.1,0-0.1,0-0.2,0c-0.1,0-0.1,0-0.2-0.1c-0.1,0-0.1-0.1-0.1-0.1v-2.4c0-0.1,0-0.1-0.1-0.2
				c0,0-0.1-0.1-0.1-0.1h-0.9c-0.1,0-0.1,0-0.1,0.1c0,0-0.1,0.1-0.1,0.2v2.1c0,0.2-0.1,0.3-0.2,0.3c-0.1,0-0.3,0.1-0.4,0.1h-0.3
				h-0.1h-1.2c0.1-0.1,0.2-0.1,0.2-0.3c0.1-0.1,0.1-0.2,0.2-0.4c0.1-0.1,0.1-0.3,0.1-0.4c0-0.1,0-0.3,0-0.4v-0.2
				c0-0.4-0.1-0.7-0.2-1c-0.1-0.3-0.3-0.5-0.5-0.6c-0.2-0.2-0.5-0.3-0.8-0.4c-0.3-0.1-0.6-0.1-1-0.1c-0.2,0-0.4,0-0.6,0
				c-0.2,0-0.4,0.1-0.6,0.1c-0.2,0.1-0.4,0.1-0.6,0.2c-0.2,0.1-0.3,0.2-0.5,0.3c-0.1,0.1-0.1,0.1-0.1,0.1c0,0-0.1,0.1-0.1,0.1l0,0.5
				c0,0,0,0.1,0,0.1s0,0.1,0,0.1l0.8,2h-1.4h-0.1h-0.9v-3.4c0-0.1,0-0.1,0-0.1c0,0-0.1,0-0.1-0.1c-0.1,0-0.2,0-0.3-0.1
				c-0.1,0-0.2,0-0.4,0c-0.1,0-0.3,0-0.4,0c-0.1,0-0.3,0-0.4,0c-0.9,0-1.6,0.2-2.1,0.7c-0.5,0.5-0.7,1.1-0.7,1.9v0.2
				c0,0.8,0.2,1.4,0.6,1.7s1,0.6,1.8,0.6h0.8v0.3c0,0.2,0,0.4-0.1,0.5s-0.2,0.2-0.3,0.3c-0.1,0.1-0.3,0.1-0.5,0.1
				c-0.2,0-0.4,0-0.7,0h-1c-0.1,0-0.2,0.1-0.2,0.2v0.8c0,0.1,0,0.1,0,0.1c0,0,0.1,0,0.1,0.1c0,0,0.1,0,0.2,0c0.1,0,0.2,0,0.4,0
				c0.1,0,0.3,0,0.4,0c0.1,0,0.2,0,0.3,0c0.4,0,0.7,0,1-0.1c0.3-0.1,0.6-0.2,0.8-0.3s0.4-0.4,0.6-0.6c0.1-0.3,0.2-0.6,0.3-1.1v-0.4
				h0.9h0.1h6.3h0.1h0.2c0.1,0,0.2,0,0.3,0s0.2,0,0.4,0c0.1,0,0.2-0.1,0.4-0.1c0.1,0,0.2-0.1,0.3-0.2c0.2,0.1,0.4,0.2,0.6,0.3
				c0.2,0,0.4,0.1,0.6,0.1h0.1c0.3,0,0.5,0,0.7-0.1s0.4-0.1,0.6-0.3c0.2,0.1,0.4,0.2,0.6,0.3c0.2,0,0.4,0.1,0.7,0.1h0.1
				c0.2,0,0.5,0,0.7-0.1c0.2,0,0.4-0.1,0.6-0.3c0.2,0.1,0.4,0.2,0.7,0.3c0.3,0,0.5,0.1,0.7,0.1h0.1h0.1h0.4c0.1,0,0.3,0,0.5,0
				c0.2,0,0.3,0,0.5,0s0.3,0,0.4,0c0.1,0,0.2,0,0.3,0c0.1,0,0.1-0.1,0.2-0.1s0.1-0.1,0.1-0.2c0-0.2,0-0.4,0-0.6c0-0.2,0-0.4,0-0.6
				v-6.1c0-0.1,0-0.1-0.1-0.2C191.6,16.6,191.6,16.5,191.5,16.5z M172.1,23.3h-0.8c-0.4,0-0.7-0.1-0.9-0.3c-0.2-0.2-0.3-0.5-0.3-0.9
				V22c0-0.4,0.1-0.7,0.3-1c0.2-0.2,0.5-0.3,0.9-0.3c0.2,0,0.4,0,0.6,0V23.3z M178.6,21.8c0,0.2,0,0.4-0.1,0.5
				c0,0.2-0.1,0.3-0.2,0.4c-0.1,0.1-0.2,0.2-0.3,0.3c-0.1,0.1-0.3,0.1-0.4,0.2h-0.5l-0.9-2.4c0.2-0.1,0.4-0.2,0.6-0.2
				c0.2,0,0.4,0,0.6,0c0.4,0,0.7,0.1,0.9,0.3C178.5,21,178.6,21.3,178.6,21.8L178.6,21.8L178.6,21.8z"/>
			<path class="st0" d="M202.9,22.5c0-0.1,0-0.2,0-0.2c0-0.4-0.1-0.7-0.2-1.1s-0.2-0.6-0.4-0.9c-0.2-0.3-0.5-0.5-0.8-0.6
				c-0.4-0.1-0.8-0.2-1.3-0.2c-0.1,0-0.2,0-0.4,0c-0.2,0-0.4,0-0.6,0.1c-0.1,0-0.1,0-0.2,0.1c0,0-0.1,0.1-0.1,0.1v0.8
				c0,0.1,0.1,0.2,0.2,0.2c0,0,0.1,0,0.2,0c0.1,0,0.1,0,0.2,0s0.1,0,0.2,0s0.1,0,0.1,0c0.3,0,0.6,0,0.8,0.1s0.4,0.2,0.6,0.3
				c0.1,0.1,0.2,0.3,0.3,0.5s0.1,0.4,0.1,0.7l0,1h-2.8c-0.1,0-0.1,0-0.1,0c0,0-0.1,0.1-0.1,0.1v1c0,0.1,0,0.1,0.1,0.1
				c0,0,0.1,0,0.1,0h3.8c0.1,0,0.1,0,0.2-0.1c0,0,0.1-0.1,0.1-0.1c0-0.1,0-0.3,0-0.5c0-0.2,0-0.3,0-0.4c0-0.1,0-0.2,0-0.3
				c0-0.1,0-0.2,0-0.4C202.9,22.7,202.9,22.6,202.9,22.5z"/>
			<path class="st0" d="M194.5,16.5h-0.9c-0.1,0-0.1,0-0.1,0.1c0,0-0.1,0.1-0.1,0.1v7.6c0,0.1,0,0.1,0.1,0.1c0,0,0.1,0.1,0.1,0.1
				h0.9c0.1,0,0.1,0,0.1-0.1s0.1-0.1,0.1-0.1v-7.6c0-0.1,0-0.1-0.1-0.1C194.6,16.6,194.6,16.5,194.5,16.5z"/>
			<path class="st0" d="M220.9,20.2c0-0.1,0-0.1-0.1-0.1c0,0-0.1-0.1-0.2-0.1h-0.9c-0.1,0-0.1,0-0.1,0.1c0,0-0.1,0.1-0.1,0.1
				c0,0.5,0,1,0,1.4c0,0.4,0,0.9,0,1.3c0,0.2,0,0.3-0.1,0.3c-0.1,0-0.2,0-0.3,0h-0.6h-0.1h-1.2c0.1-0.1,0.2-0.1,0.2-0.3
				c0.1-0.1,0.1-0.2,0.2-0.4c0.1-0.1,0.1-0.3,0.1-0.4c0-0.1,0-0.3,0-0.4v-0.2c0-0.4-0.1-0.7-0.2-1c-0.1-0.3-0.3-0.5-0.5-0.6
				c-0.2-0.2-0.5-0.3-0.8-0.4c-0.3-0.1-0.6-0.1-1-0.1c-0.2,0-0.4,0-0.6,0c-0.2,0-0.4,0.1-0.6,0.1c-0.2,0.1-0.4,0.1-0.6,0.2
				c-0.2,0.1-0.3,0.2-0.5,0.3c-0.1,0.1-0.1,0.1-0.1,0.1c0,0-0.1,0.1-0.1,0.1l0,0.5c0,0,0,0.1,0,0.1s0,0.1,0,0.1l0.8,2h-1.4h-0.1
				h-0.6l0-1c0-0.4-0.1-0.7-0.2-1.1s-0.2-0.6-0.5-0.9s-0.5-0.5-0.8-0.6c-0.4-0.1-0.8-0.2-1.3-0.2c-0.1,0-0.2,0-0.4,0
				c-0.2,0-0.4,0-0.6,0.1c-0.1,0-0.1,0-0.2,0.1c0,0-0.1,0.1-0.1,0.1v0.8c0,0.1,0.1,0.2,0.2,0.2c0,0,0.1,0,0.2,0c0.1,0,0.1,0,0.2,0
				c0.1,0,0.1,0,0.2,0c0.1,0,0.1,0,0.1,0c0.3,0,0.6,0,0.8,0.1s0.4,0.2,0.6,0.3s0.2,0.3,0.3,0.5c0.1,0.2,0.1,0.4,0.1,0.7l0,1h-2.8
				c-0.1,0-0.1,0-0.1,0c0,0-0.1,0.1-0.1,0.1v1c0,0.1,0,0.1,0.1,0.1c0,0,0.1,0,0.1,0h4.6h0.1h6.3h0.1h0.4c0.1,0,0.3,0,0.5,0
				c0.2,0,0.3,0,0.5,0s0.3,0,0.4,0c0.1,0,0.2,0,0.3,0c0.1,0,0.1-0.1,0.2-0.1s0.1-0.1,0.1-0.2c0-0.2,0-0.4,0-0.7c0-0.3,0-0.7,0-1.1
				c0-0.2,0-0.4,0-0.5c0-0.1,0-0.3,0-0.5s0-0.3,0-0.5C220.9,20.6,220.9,20.4,220.9,20.2z M216.5,21.8c0,0.2,0,0.4-0.1,0.5
				c0,0.2-0.1,0.3-0.2,0.4c-0.1,0.1-0.2,0.2-0.3,0.3c-0.1,0.1-0.3,0.1-0.4,0.2H215l-0.9-2.4c0.2-0.1,0.4-0.2,0.6-0.2
				c0.2,0,0.4,0,0.6,0c0.4,0,0.7,0.1,0.9,0.3C216.4,21,216.5,21.3,216.5,21.8L216.5,21.8z"/>
			<path class="st0" d="M167.7,22.5c0-0.1,0-0.2,0-0.2c0-0.4-0.1-0.7-0.2-1.1s-0.2-0.6-0.4-0.9c-0.2-0.3-0.5-0.5-0.8-0.6
				c-0.4-0.1-0.8-0.2-1.3-0.2c-0.1,0-0.2,0-0.4,0c-0.2,0-0.4,0-0.6,0.1c-0.1,0-0.1,0-0.2,0.1c0,0-0.1,0.1-0.1,0.1v0.8
				c0,0.1,0.1,0.2,0.2,0.2c0,0,0.1,0,0.2,0c0.1,0,0.1,0,0.2,0s0.1,0,0.2,0s0.1,0,0.1,0c0.3,0,0.6,0,0.8,0.1s0.4,0.2,0.6,0.3
				c0.1,0.1,0.2,0.3,0.3,0.5s0.1,0.4,0.1,0.7l0,1h-2.8c-0.1,0-0.1,0-0.1,0c0,0-0.1,0.1-0.1,0.1v1c0,0.1,0,0.1,0.1,0.1
				c0,0,0.1,0,0.1,0h3.8c0.1,0,0.1,0,0.2-0.1c0,0,0.1-0.1,0.1-0.1c0-0.1,0-0.3,0-0.5c0-0.2,0-0.3,0-0.4c0-0.1,0-0.2,0-0.3
				c0-0.1,0-0.2,0-0.4C167.7,22.7,167.7,22.6,167.7,22.5z"/>
		</g>
		<g>
			<path class="st0" d="M159.2,33.7c0,0.3,0,0.5-0.1,0.8c-0.1,0.2-0.2,0.5-0.4,0.7s-0.5,0.4-0.8,0.5c-0.3,0.1-0.8,0.2-1.3,0.2
				c-0.4,0-0.7,0-1,0s-0.6-0.1-0.8-0.1c-0.1,0-0.1,0-0.1-0.1s-0.1-0.1-0.1-0.1v-0.7c0,0,0-0.1,0.1-0.1s0.1-0.1,0.1-0.1h0
				c0.1,0,0.2,0,0.4,0c0.2,0,0.3,0,0.5,0c0.2,0,0.3,0,0.5,0s0.3,0,0.4,0c0.4,0,0.8-0.1,0.9-0.2c0.2-0.2,0.2-0.4,0.2-0.7
				c0-0.1,0-0.2,0-0.3s-0.1-0.2-0.1-0.2s-0.2-0.2-0.3-0.2c-0.1-0.1-0.2-0.2-0.4-0.3l-1.3-0.8c-0.2-0.1-0.4-0.3-0.6-0.4
				c-0.1-0.1-0.3-0.3-0.4-0.4s-0.2-0.3-0.2-0.5c0-0.2-0.1-0.3-0.1-0.5c0-0.3,0-0.5,0.1-0.8c0.1-0.2,0.2-0.4,0.4-0.6s0.5-0.3,0.8-0.4
				c0.3-0.1,0.7-0.1,1.2-0.1c0.2,0,0.4,0,0.5,0c0.2,0,0.4,0,0.6,0c0.2,0,0.4,0,0.5,0.1c0.1,0,0.3,0,0.4,0.1c0.1,0,0.1,0,0.1,0.1
				s0.1,0.1,0.1,0.1v0.8c0,0,0,0.1-0.1,0.1s-0.1,0-0.1,0h0c-0.3,0-0.7-0.1-1-0.1s-0.7,0-1,0c-0.4,0-0.6,0.1-0.8,0.2
				c-0.2,0.1-0.2,0.3-0.2,0.5c0,0.1,0,0.2,0,0.2c0,0.1,0.1,0.1,0.1,0.2s0.1,0.1,0.3,0.2s0.2,0.2,0.4,0.2l1.2,0.7
				c0.3,0.2,0.5,0.3,0.7,0.5c0.2,0.2,0.3,0.3,0.4,0.5s0.2,0.3,0.2,0.5C159.1,33.3,159.2,33.5,159.2,33.7z"/>
			<path class="st0" d="M165.8,35.6c0,0,0,0.1-0.1,0.1c0,0-0.1,0-0.1,0h-1.1c-0.1,0-0.1,0-0.1,0s-0.1-0.1-0.1-0.1l-0.5-1.9h-2.3
				l-0.5,1.9c0,0,0,0.1-0.1,0.1c0,0-0.1,0-0.1,0h-1.1c-0.1,0-0.1,0-0.1,0s-0.1-0.1-0.1-0.1c0,0,0,0,0,0s0,0,0,0l1.7-6.3
				c0.1-0.2,0.1-0.4,0.3-0.6c0.1-0.1,0.2-0.2,0.4-0.3c0.1-0.1,0.3-0.1,0.4-0.1c0.1,0,0.3,0,0.4,0s0.2,0,0.4,0s0.3,0.1,0.4,0.1
				s0.2,0.2,0.4,0.3c0.1,0.1,0.2,0.3,0.3,0.6L165.8,35.6C165.8,35.5,165.8,35.6,165.8,35.6C165.9,35.6,165.8,35.6,165.8,35.6z
				 M162.9,29.5c0-0.1,0-0.1-0.1-0.1c0,0-0.1,0-0.1,0s-0.1,0-0.1,0c0,0,0,0.1-0.1,0.1l-0.7,3h1.8L162.9,29.5z"/>
			<path class="st0" d="M172.1,33c0,0.5-0.1,1-0.2,1.3c-0.1,0.4-0.3,0.7-0.6,0.9s-0.5,0.4-0.9,0.5c-0.3,0.1-0.7,0.2-1.1,0.2
				s-0.8,0-1.1-0.2c-0.3-0.1-0.6-0.3-0.9-0.5s-0.4-0.5-0.6-0.9s-0.2-0.8-0.2-1.3v-4.5c0,0,0-0.1,0.1-0.1c0,0,0.1-0.1,0.1-0.1h1
				c0.1,0,0.1,0,0.1,0.1s0.1,0.1,0.1,0.1V33c0,0.3,0,0.5,0.1,0.8s0.1,0.4,0.2,0.5s0.2,0.2,0.4,0.3c0.2,0.1,0.4,0.1,0.7,0.1
				c0.3,0,0.5,0,0.7-0.1s0.3-0.2,0.4-0.3s0.2-0.3,0.2-0.5s0.1-0.5,0.1-0.8v-4.5c0,0,0-0.1,0.1-0.1c0,0,0.1-0.1,0.1-0.1h1
				c0.1,0,0.1,0,0.1,0.1s0.1,0.1,0.1,0.1L172.1,33L172.1,33z"/>
			<path class="st0" d="M179,32.7c0,1-0.3,1.8-0.8,2.3s-1.3,0.8-2.4,0.8c-0.2,0-0.4,0-0.6,0s-0.4,0-0.6,0s-0.4,0-0.5,0
				c-0.1,0-0.3,0-0.3,0c-0.1,0-0.1,0-0.2-0.1s-0.1-0.1-0.1-0.2v-6.8c0-0.1,0-0.2,0.1-0.2c0,0,0.1-0.1,0.2-0.1c0.1,0,0.2,0,0.3,0
				s0.3,0,0.5,0c0.2,0,0.4,0,0.6,0s0.4,0,0.6,0c1,0,1.8,0.3,2.4,0.8s0.8,1.3,0.8,2.3V32.7z M177.6,31.3c0-0.4-0.1-0.7-0.1-0.9
				s-0.2-0.4-0.4-0.6s-0.4-0.2-0.6-0.3c-0.2-0.1-0.4-0.1-0.7-0.1c-0.2,0-0.4,0-0.5,0c-0.1,0-0.3,0-0.4,0v5.3c0.1,0,0.2,0,0.4,0
				s0.3,0,0.5,0c0.2,0,0.5,0,0.7-0.1s0.4-0.2,0.6-0.3s0.3-0.3,0.4-0.6s0.1-0.6,0.1-0.9V31.3z"/>
			<path class="st0" d="M181.7,35.5c0,0,0,0.1-0.1,0.1s-0.1,0.1-0.1,0.1h-1c-0.1,0-0.1,0-0.1-0.1s-0.1-0.1-0.1-0.1v-7.1
				c0,0,0-0.1,0.1-0.1s0.1-0.1,0.1-0.1h1c0.1,0,0.1,0,0.1,0.1c0,0,0.1,0.1,0.1,0.1V35.5z"/>
			<path class="st0" d="M190.2,35.4c0,0.1,0,0.1-0.1,0.2s-0.1,0.1-0.2,0.1c0,0-0.1,0-0.2,0s-0.2,0-0.4,0s-0.3,0-0.5,0
				c-0.2,0-0.4,0-0.6,0c-0.3,0-0.6,0-1-0.1c-0.3-0.1-0.6-0.2-0.9-0.5c-0.3-0.2-0.5-0.5-0.7-1s-0.3-0.9-0.3-1.5v-1.5
				c0-0.6,0.1-1.1,0.3-1.5s0.4-0.7,0.7-1c0.3-0.2,0.6-0.4,0.9-0.5c0.3-0.1,0.7-0.1,1-0.1c0.2,0,0.4,0,0.6,0c0.2,0,0.3,0,0.5,0
				c0.1,0,0.3,0,0.4,0.1c0.1,0,0.2,0,0.2,0c0.1,0,0.1,0,0.2,0.1s0.1,0.1,0.1,0.2v0.7c0,0.1,0,0.1-0.1,0.1s-0.1,0.1-0.2,0.1h0
				c-0.1,0-0.2,0-0.3,0c-0.1,0-0.3,0-0.4,0s-0.3,0-0.4,0c-0.1,0-0.3,0-0.4,0c-0.2,0-0.4,0-0.6,0.1s-0.3,0.2-0.5,0.3
				s-0.2,0.3-0.3,0.6s-0.1,0.5-0.1,0.9v1.5c0,0.3,0,0.7,0.1,0.9s0.2,0.4,0.3,0.6c0.1,0.2,0.3,0.2,0.5,0.3c0.2,0.1,0.4,0.1,0.6,0.1
				c0.1,0,0.3,0,0.4,0c0.1,0,0.3,0,0.4,0s0.3,0,0.4,0c0.1,0,0.2,0,0.3,0h0c0.1,0,0.1,0,0.2,0.1s0.1,0.1,0.1,0.2V35.4z"/>
			<path class="st0" d="M195.9,35.5c0,0.1,0,0.1-0.1,0.2s-0.1,0-0.2,0.1c-0.1,0-0.2,0-0.3,0s-0.2,0-0.4,0s-0.3,0-0.5,0
				c-0.2,0-0.5,0-0.8,0c-0.3,0-0.6,0-0.9-0.1c-0.3,0-0.5-0.2-0.7-0.3s-0.4-0.4-0.5-0.6c-0.1-0.3-0.2-0.6-0.2-1v-3.5
				c0-0.4,0.1-0.8,0.2-1c0.1-0.3,0.3-0.5,0.5-0.6s0.5-0.2,0.7-0.3c0.3,0,0.6-0.1,0.9-0.1c0.3,0,0.6,0,0.8,0c0.2,0,0.4,0,0.5,0
				c0.1,0,0.3,0,0.4,0c0.1,0,0.2,0,0.3,0c0.1,0,0.1,0,0.2,0.1s0.1,0.1,0.1,0.1v0.6c0,0,0,0.1-0.1,0.1s-0.1,0.1-0.1,0.1h-2.1
				c-0.3,0-0.5,0.1-0.6,0.2s-0.2,0.4-0.2,0.7v1.1h2.7c0.1,0,0.1,0,0.1,0.1c0,0,0.1,0.1,0.1,0.1v0.7c0,0,0,0.1-0.1,0.1
				s-0.1,0.1-0.1,0.1h-2.7v1.3c0,0.3,0.1,0.6,0.2,0.7s0.3,0.2,0.6,0.2h2.1c0.1,0,0.1,0,0.1,0.1s0.1,0.1,0.1,0.1V35.5z"/>
			<path class="st0" d="M203,35.3c0,0.1,0,0.2-0.1,0.3s-0.2,0.1-0.3,0.1h-1c-0.1,0-0.2,0-0.3,0s-0.2-0.1-0.3-0.3l-2.2-4.9
				c0,0-0.1-0.1-0.1-0.1s-0.1,0-0.1,0.1v5.1c0,0,0,0.1-0.1,0.1s-0.1,0.1-0.1,0.1h-0.9c-0.1,0-0.1,0-0.1-0.1s-0.1-0.1-0.1-0.1v-6.9
				c0-0.1,0-0.2,0.1-0.3c0.1-0.1,0.2-0.1,0.3-0.1h1.1c0.1,0,0.2,0,0.3,0.1c0.1,0,0.1,0.1,0.2,0.3l2.4,5.2c0,0,0.1,0.1,0.1,0.1
				s0.1,0,0.1-0.1v-5.3c0-0.1,0.1-0.2,0.2-0.2h0.9c0.1,0,0.2,0.1,0.2,0.2V35.3z"/>
			<path class="st0" d="M209,33.7c0,0.3,0,0.5-0.1,0.8c-0.1,0.2-0.2,0.5-0.4,0.7s-0.5,0.4-0.8,0.5c-0.3,0.1-0.8,0.2-1.3,0.2
				c-0.4,0-0.7,0-1,0s-0.6-0.1-0.8-0.1c-0.1,0-0.1,0-0.1-0.1s-0.1-0.1-0.1-0.1v-0.7c0,0,0-0.1,0.1-0.1s0.1-0.1,0.1-0.1h0
				c0.1,0,0.2,0,0.4,0c0.2,0,0.3,0,0.5,0c0.2,0,0.3,0,0.5,0s0.3,0,0.4,0c0.4,0,0.8-0.1,0.9-0.2c0.2-0.2,0.2-0.4,0.2-0.7
				c0-0.1,0-0.2,0-0.3s-0.1-0.2-0.1-0.2s-0.2-0.2-0.3-0.2c-0.1-0.1-0.2-0.2-0.4-0.3l-1.3-0.8c-0.2-0.1-0.4-0.3-0.6-0.4
				c-0.1-0.1-0.3-0.3-0.4-0.4s-0.2-0.3-0.2-0.5c0-0.2-0.1-0.3-0.1-0.5c0-0.3,0-0.5,0.1-0.8c0.1-0.2,0.2-0.4,0.4-0.6s0.5-0.3,0.8-0.4
				c0.3-0.1,0.7-0.1,1.2-0.1c0.2,0,0.4,0,0.5,0c0.2,0,0.4,0,0.6,0c0.2,0,0.4,0,0.5,0.1s0.3,0,0.4,0.1c0.1,0,0.1,0,0.1,0.1
				c0,0,0.1,0.1,0.1,0.1v0.8c0,0,0,0.1-0.1,0.1s-0.1,0-0.1,0h0c-0.3,0-0.7-0.1-1-0.1s-0.7,0-1,0c-0.4,0-0.6,0.1-0.8,0.2
				c-0.2,0.1-0.2,0.3-0.2,0.5c0,0.1,0,0.2,0,0.2c0,0.1,0.1,0.1,0.1,0.2s0.1,0.1,0.3,0.2s0.2,0.2,0.4,0.2l1.2,0.7
				c0.3,0.2,0.5,0.3,0.7,0.5c0.2,0.2,0.3,0.3,0.4,0.5s0.2,0.3,0.2,0.5C209,33.3,209,33.5,209,33.7z"/>
			<path class="st0" d="M215.7,33c0,0.5-0.1,1-0.2,1.3c-0.1,0.4-0.3,0.7-0.6,0.9s-0.5,0.4-0.9,0.5c-0.3,0.1-0.7,0.2-1.1,0.2
				s-0.8,0-1.1-0.2c-0.3-0.1-0.6-0.3-0.9-0.5s-0.4-0.5-0.6-0.9s-0.2-0.8-0.2-1.3v-4.5c0,0,0-0.1,0.1-0.1c0,0,0.1-0.1,0.1-0.1h1
				c0.1,0,0.1,0,0.1,0.1c0,0,0.1,0.1,0.1,0.1V33c0,0.3,0,0.5,0.1,0.8s0.1,0.4,0.2,0.5s0.2,0.2,0.4,0.3c0.2,0.1,0.4,0.1,0.7,0.1
				c0.3,0,0.5,0,0.7-0.1s0.3-0.2,0.4-0.3s0.2-0.3,0.2-0.5c0-0.2,0.1-0.5,0.1-0.8v-4.5c0,0,0-0.1,0.1-0.1s0.1-0.1,0.1-0.1h1
				c0.1,0,0.1,0,0.1,0.1c0,0,0.1,0.1,0.1,0.1L215.7,33L215.7,33z"/>
			<path class="st0" d="M221.8,33.7c0,0.3,0,0.5-0.1,0.8c-0.1,0.2-0.2,0.5-0.4,0.7s-0.5,0.4-0.8,0.5c-0.3,0.1-0.8,0.2-1.3,0.2
				c-0.4,0-0.7,0-1,0s-0.6-0.1-0.8-0.1c-0.1,0-0.1,0-0.1-0.1s-0.1-0.1-0.1-0.1v-0.7c0,0,0-0.1,0.1-0.1s0.1-0.1,0.1-0.1h0
				c0.1,0,0.2,0,0.4,0c0.2,0,0.3,0,0.5,0c0.2,0,0.3,0,0.5,0s0.3,0,0.4,0c0.4,0,0.8-0.1,0.9-0.2c0.2-0.2,0.2-0.4,0.2-0.7
				c0-0.1,0-0.2,0-0.3s-0.1-0.2-0.1-0.2s-0.2-0.2-0.3-0.2c-0.1-0.1-0.2-0.2-0.4-0.3l-1.3-0.8c-0.2-0.1-0.4-0.3-0.6-0.4
				c-0.1-0.1-0.3-0.3-0.4-0.4s-0.2-0.3-0.2-0.5s-0.1-0.3-0.1-0.5c0-0.3,0-0.5,0.1-0.8c0.1-0.2,0.2-0.4,0.4-0.6s0.5-0.3,0.8-0.4
				c0.3-0.1,0.7-0.1,1.2-0.1c0.2,0,0.4,0,0.5,0c0.2,0,0.4,0,0.6,0c0.2,0,0.4,0,0.5,0.1s0.3,0,0.4,0.1c0.1,0,0.1,0,0.1,0.1
				c0,0,0.1,0.1,0.1,0.1v0.8c0,0,0,0.1-0.1,0.1s-0.1,0-0.1,0h0c-0.3,0-0.7-0.1-1-0.1s-0.7,0-1,0c-0.4,0-0.6,0.1-0.8,0.2
				c-0.2,0.1-0.2,0.3-0.2,0.5c0,0.1,0,0.2,0,0.2s0.1,0.1,0.1,0.2s0.1,0.1,0.3,0.2c0.1,0.1,0.2,0.2,0.4,0.2l1.2,0.7
				c0.3,0.2,0.5,0.3,0.7,0.5c0.2,0.2,0.3,0.3,0.4,0.5s0.2,0.3,0.2,0.5C221.7,33.3,221.8,33.5,221.8,33.7z"/>
		</g>
		<g>
			<path class="st0" d="M163,47.6h0.2c0,0,0,0,0.1,0c0,0,0,0,0,0v-0.3c0,0,0,0,0,0c0,0,0,0-0.1,0H163c0,0,0,0-0.1,0c0,0,0,0,0,0
				L163,47.6C162.9,47.5,162.9,47.5,163,47.6C162.9,47.6,162.9,47.6,163,47.6z"/>
			<path class="st0" d="M172.3,46.7H172c0,0,0,0-0.1,0c0,0,0,0,0,0v1.9c0,0,0,0.1,0,0.1c0,0-0.1,0-0.1,0h-0.2h0h-0.1c0,0,0,0-0.1,0
				s0,0-0.1,0c0,0,0,0-0.1,0c0,0,0,0,0,0s0,0,0-0.1s0,0,0-0.1v-0.2c0-0.2-0.1-0.4-0.2-0.5s-0.3-0.2-0.5-0.2c-0.2,0-0.4,0.1-0.5,0.2
				c-0.1,0.1-0.2,0.3-0.2,0.5v0.3c0,0,0,0.1,0,0.1c0,0,0,0,0,0c0,0,0,0-0.1,0s0,0-0.1,0s0,0-0.1,0h-0.1h0h-0.1c0,0,0,0-0.1,0
				s0,0-0.1,0c0,0,0,0-0.1,0c0,0,0,0,0,0v-0.9c0,0,0,0,0,0c0,0,0,0,0,0H169c0,0,0,0-0.1,0c0,0,0,0,0,0v0.8c0,0,0,0,0,0.1
				c0,0,0,0-0.1,0c0,0,0,0-0.1,0s0,0-0.1,0h-0.1h0h-0.1c0,0,0,0-0.1,0c0,0-0.1,0-0.1,0c0,0,0,0-0.1,0c0,0,0,0,0,0v-1c0,0,0,0,0,0
				c0,0,0,0,0,0h-0.3c0,0,0,0-0.1,0c0,0,0,0,0,0v0.9c0,0,0,0,0,0.1c0,0,0,0-0.1,0s0,0-0.1,0s0,0-0.1,0h0c0,0-0.1,0-0.1,0
				c0,0-0.1,0-0.1,0v-0.8c0,0,0,0,0,0c0,0,0,0-0.1,0h-0.3c0,0,0,0-0.1,0c0,0,0,0,0,0v0.8c0,0,0,0,0,0.1c0,0,0,0,0,0c0,0,0,0-0.1,0
				s0,0-0.1,0h-0.1c0,0,0,0-0.1,0s0,0-0.1,0c0,0,0,0-0.1,0c0,0,0,0,0,0v-0.7c0,0,0,0,0,0c0,0,0,0,0,0h-0.3c0,0,0,0-0.1,0
				c0,0,0,0,0,0v0.7c0,0,0,0.1-0.1,0.1s-0.1,0-0.1,0h-0.1h0h-0.1c-0.1,0-0.1,0-0.1,0s-0.1-0.1-0.1-0.1v-1.8c0,0,0,0,0,0
				c0,0,0,0-0.1,0h-0.3c0,0,0,0-0.1,0c0,0,0,0,0,0v2c0,0.1,0,0.2,0,0.2s0.1,0.1,0.1,0.1c0,0,0.1,0.1,0.1,0.1s0.1,0,0.2,0h0.2h0h0.1
				c0,0,0.1,0,0.1,0c0,0,0.1,0,0.1,0c0,0,0.1,0,0.1,0c0,0,0.1,0,0.1-0.1c0.1,0,0.1,0.1,0.2,0.1s0.1,0,0.2,0h0c0.1,0,0.2,0,0.2,0
				c0.1,0,0.1,0,0.2-0.1c0.1,0,0.1,0.1,0.2,0.1s0.1,0,0.2,0h0c0.1,0,0.1,0,0.2,0c0.1,0,0.1,0,0.2-0.1c0.1,0,0.1,0.1,0.2,0.1
				s0.2,0,0.2,0h0h0h0.1c0,0,0.1,0,0.1,0s0.1,0,0.1,0c0,0,0.1,0,0.1,0s0.1,0,0.1,0c0.1,0,0.1,0.1,0.2,0.1c0.1,0,0.2,0,0.2,0h0h0h0.1
				c0.1,0,0.1,0,0.2,0c0.1,0,0.1,0,0.2-0.1c0.1,0.1,0.1,0.1,0.2,0.1c0.1,0,0.2,0,0.3,0s0.2,0,0.3,0s0.2-0.1,0.2-0.1
				c0.1,0,0.1,0.1,0.2,0.1s0.1,0,0.2,0h0h0h0.1c0,0,0.1,0,0.1,0c0.1,0,0.1,0,0.2,0c0.1,0,0.1,0,0.1,0s0.1,0,0.1,0c0,0,0,0,0.1,0
				c0,0,0,0,0-0.1c0-0.1,0-0.1,0-0.2c0-0.1,0-0.1,0-0.2L172.3,46.7C172.3,46.7,172.3,46.7,172.3,46.7
				C172.3,46.7,172.3,46.7,172.3,46.7z M170.9,48.5c0,0.1,0,0.2-0.1,0.3c-0.1,0.1-0.1,0.1-0.2,0.1c-0.1,0-0.1,0-0.2,0
				s-0.1-0.1-0.1-0.2c0,0,0-0.1,0-0.2v-0.1c0-0.1,0-0.2,0.1-0.3s0.1-0.1,0.2-0.1s0.2,0,0.2,0.1s0.1,0.2,0.1,0.3L170.9,48.5
				L170.9,48.5z"/>
			<path class="st0" d="M163.6,47.6h0.2c0,0,0,0,0.1,0c0,0,0,0,0,0v-0.3c0,0,0,0,0,0c0,0,0,0-0.1,0h-0.2c0,0,0,0-0.1,0c0,0,0,0,0,0
				L163.6,47.6C163.5,47.5,163.5,47.5,163.6,47.6C163.5,47.6,163.6,47.6,163.6,47.6z"/>
			<path class="st0" d="M165.3,46.4c0.1,0,0.1,0,0.2,0.1c0.1,0,0.1,0,0.1,0c0.1,0,0.1,0,0.2,0c0.1,0,0.1,0,0.1-0.1c0,0,0,0,0-0.1
				v-0.1c0,0,0,0,0,0c0,0,0,0,0,0c0,0,0,0-0.1,0s-0.1,0-0.1,0c0,0-0.1,0-0.1,0c0,0-0.1,0-0.1,0s-0.1,0-0.1,0c0,0-0.1,0-0.1,0
				c0,0-0.1,0-0.1,0s-0.1,0-0.1,0c0,0-0.1,0-0.1,0.1c0,0-0.1,0.1-0.1,0.2c0,0,0,0,0.1,0h0.1c0,0,0,0,0.1,0l0,0
				C165.1,46.3,165.1,46.3,165.3,46.4C165.2,46.3,165.2,46.3,165.3,46.4C165.2,46.3,165.2,46.3,165.3,46.4z"/>
			<path class="st0" d="M164.7,48c0,0,0-0.1,0-0.2c0,0,0,0,0,0c0,0,0,0-0.1,0h-0.3c0,0,0,0,0,0c0,0,0,0,0,0c0,0.2,0,0.3,0,0.4
				c0,0.1,0,0.3,0,0.4c0,0,0,0.1,0,0.1s-0.1,0-0.1,0h-1c-0.1,0-0.3,0-0.4,0c-0.1,0-0.2-0.1-0.2-0.1s-0.1-0.1-0.1-0.2
				c0-0.1,0-0.2,0-0.3c0-0.1,0-0.1,0-0.2c0,0,0-0.1-0.1-0.1h-0.2c0,0,0,0-0.1,0c0,0,0,0,0,0c0,0.1,0,0.2,0,0.3c0,0.1,0,0.3,0.1,0.4
				s0.1,0.2,0.2,0.3c0.1,0.1,0.2,0.1,0.3,0.2c0.1,0,0.3,0.1,0.5,0.1h0.7c0.1,0,0.1,0,0.2,0s0.1,0,0.2,0c0.1,0,0.1,0,0.2,0
				c0.1,0,0.1,0,0.1,0c0,0,0,0,0.1,0c0,0,0,0,0-0.1c0-0.1,0-0.1,0-0.2c0-0.1,0-0.2,0-0.3c0-0.1,0-0.1,0-0.2s0-0.1,0-0.1
				C164.7,48.1,164.7,48.1,164.7,48z"/>
			<path class="st0" d="M177.1,47.6h0.3c0,0,0,0,0.1,0c0,0,0,0,0,0v-0.3c0,0,0,0,0,0c0,0,0,0-0.1,0h-0.3c0,0,0,0-0.1,0c0,0,0,0,0,0
				L177.1,47.6C177,47.5,177,47.5,177.1,47.6C177.1,47.6,177.1,47.6,177.1,47.6z"/>
			<path class="st0" d="M191.9,47.6h0.3c0,0,0,0,0.1,0c0,0,0,0,0,0v-0.3c0,0,0,0,0,0c0,0,0,0-0.1,0h-0.3c0,0,0,0-0.1,0c0,0,0,0,0,0
				L191.9,47.6C191.8,47.5,191.8,47.5,191.9,47.6C191.8,47.6,191.8,47.6,191.9,47.6z"/>
			<path class="st0" d="M216.3,47.4h0.2c0,0,0,0,0.1,0c0,0,0,0,0,0v-0.3c0,0,0,0,0,0c0,0,0,0-0.1,0h-0.2c0,0,0,0-0.1,0c0,0,0,0,0,0
				L216.3,47.4C216.2,47.4,216.2,47.4,216.3,47.4C216.2,47.4,216.2,47.4,216.3,47.4z"/>
			<path class="st0" d="M216.9,47.4h0.2c0,0,0,0,0.1,0c0,0,0,0,0,0v-0.3c0,0,0,0,0,0c0,0,0,0-0.1,0h-0.2c0,0,0,0-0.1,0c0,0,0,0,0,0
				L216.9,47.4C216.8,47.4,216.8,47.4,216.9,47.4C216.8,47.4,216.8,47.4,216.9,47.4z"/>
			<path class="st0" d="M169,47.4h0.3c0,0,0,0,0.1,0c0,0,0,0,0,0v-0.3c0,0,0,0,0,0c0,0,0,0-0.1,0H169c0,0,0,0-0.1,0c0,0,0,0,0,0
				L169,47.4C168.9,47.4,168.9,47.4,169,47.4C168.9,47.4,168.9,47.4,169,47.4z"/>
			<path class="st0" d="M167.1,46.9h0.2c0,0,0,0,0.1,0c0,0,0,0,0,0v-0.2c0,0,0,0,0,0c0,0,0,0-0.1,0h-0.2c0,0,0,0-0.1,0c0,0,0,0,0,0
				L167.1,46.9C167,46.9,167,46.9,167.1,46.9C167,46.9,167.1,46.9,167.1,46.9z"/>
			<path class="st0" d="M166.8,47.4h0.2c0,0,0,0,0.1,0c0,0,0,0,0,0v-0.2c0,0,0,0,0,0c0,0,0,0-0.1,0h-0.2c0,0,0,0-0.1,0c0,0,0,0,0,0
				L166.8,47.4C166.7,47.4,166.7,47.4,166.8,47.4C166.7,47.4,166.7,47.4,166.8,47.4z"/>
			<path class="st0" d="M167.3,47.1C167.3,47.1,167.3,47.1,167.3,47.1l0,0.3c0,0,0,0,0,0c0,0,0,0,0.1,0h0.2c0,0,0,0,0.1,0
				c0,0,0,0,0,0v-0.2c0,0,0,0,0,0c0,0,0,0-0.1,0L167.3,47.1C167.4,47,167.3,47,167.3,47.1z"/>
			<path class="st0" d="M218.8,46.7C218.8,46.7,218.8,46.7,218.8,46.7l-0.4,0c0,0,0,0-0.1,0c0,0,0,0,0,0v2.4c0,0,0,0,0,0
				c0,0,0,0,0.1,0h0.3c0,0,0,0,0.1,0c0,0,0,0,0,0L218.8,46.7C218.9,46.7,218.9,46.7,218.8,46.7z"/>
			<path class="st0" d="M208.7,46.7h-0.3c0,0,0,0-0.1,0c0,0,0,0,0,0v2.4c0,0,0,0,0,0c0,0,0,0,0.1,0h0.3c0,0,0,0,0.1,0c0,0,0,0,0,0
				L208.7,46.7C208.7,46.7,208.7,46.7,208.7,46.7C208.7,46.7,208.7,46.7,208.7,46.7z"/>
			<path class="st0" d="M207.7,46.7h-0.3c0,0,0,0-0.1,0c0,0,0,0,0,0v1.9c0,0,0,0.1,0,0.1c0,0-0.1,0-0.1,0H207h0h-0.4
				c0,0,0.1,0,0.1-0.1c0,0,0-0.1,0.1-0.1c0,0,0-0.1,0-0.1c0,0,0-0.1,0-0.1v-0.1c0-0.1,0-0.2-0.1-0.3c0-0.1-0.1-0.2-0.2-0.2
				c-0.1,0-0.1-0.1-0.2-0.1s-0.2,0-0.3,0c-0.1,0-0.1,0-0.2,0c-0.1,0-0.1,0-0.2,0c-0.1,0-0.1,0-0.2,0.1s-0.1,0-0.1,0.1c0,0,0,0-0.1,0
				c0,0,0,0,0,0l0,0.2c0,0,0,0,0,0c0,0,0,0,0,0l0.2,0.6H205h0h-0.1c-0.1,0-0.1,0-0.1,0s-0.1-0.1-0.1-0.1v-1.8c0,0,0,0,0,0
				c0,0,0,0-0.1,0h-0.3c0,0,0,0-0.1,0c0,0,0,0,0,0v2c0,0.1,0,0.2,0,0.2s0.1,0.1,0.1,0.1c0,0,0.1,0.1,0.1,0.1s0.1,0,0.2,0h0.2h0h2h0
				h0.1c0,0,0.1,0,0.1,0c0.1,0,0.1,0,0.2,0c0.1,0,0.1,0,0.1,0s0.1,0,0.1,0c0,0,0,0,0.1,0c0,0,0,0,0-0.1c0-0.1,0-0.1,0-0.2
				c0-0.1,0-0.1,0-0.2L207.7,46.7C207.8,46.7,207.7,46.7,207.7,46.7C207.8,46.7,207.7,46.7,207.7,46.7z M206.4,48.3c0,0,0,0.1,0,0.2
				c0,0,0,0.1-0.1,0.1s-0.1,0.1-0.1,0.1c0,0-0.1,0-0.1,0.1h-0.2l-0.3-0.7c0.1,0,0.1-0.1,0.2-0.1c0.1,0,0.1,0,0.2,0
				c0.1,0,0.2,0,0.3,0.1C206.4,48.1,206.4,48.1,206.4,48.3L206.4,48.3L206.4,48.3z"/>
			<path class="st0" d="M203.2,47.6c-0.1,0-0.2,0-0.3,0s-0.2,0.1-0.2,0.1c-0.1,0.1-0.1,0.1-0.1,0.2s-0.1,0.2-0.1,0.3v0.2
				c0,0,0,0.1,0,0.1c0,0,0,0.1,0,0.1c-0.1,0-0.2,0-0.3,0.1c-0.1,0.1-0.1,0.2-0.1,0.3v0.8c0,0,0,0,0,0c0,0,0,0,0,0h0.3c0,0,0,0,0.1,0
				c0,0,0,0,0,0v-0.8c0,0,0-0.1,0-0.1c0,0,0.1,0,0.1,0c0.1,0.1,0.1,0.1,0.2,0.1s0.2,0,0.3,0c0.2,0,0.4-0.1,0.5-0.2
				c0.1-0.1,0.2-0.3,0.2-0.5v-0.2c0-0.2-0.1-0.4-0.2-0.5C203.6,47.6,203.4,47.6,203.2,47.6z M203.5,48.4c0,0.1,0,0.2-0.1,0.3
				c-0.1,0-0.1,0.1-0.2,0.1c-0.1,0-0.2,0-0.2-0.1s-0.1-0.2-0.1-0.3v-0.1c0-0.1,0-0.2,0.1-0.3s0.1-0.1,0.2-0.1c0.1,0,0.2,0,0.2,0.1
				s0.1,0.2,0.1,0.3V48.4z"/>
			<path class="st0" d="M212.1,46.7h-0.3c0,0,0,0-0.1,0c0,0,0,0,0,0v2.4c0,0,0,0,0,0c0,0,0,0,0.1,0h0.3c0,0,0,0,0.1,0c0,0,0,0,0,0
				L212.1,46.7C212.2,46.7,212.2,46.7,212.1,46.7C212.2,46.7,212.2,46.7,212.1,46.7z"/>
			<path class="st0" d="M217.9,46.7h-0.3c0,0,0,0-0.1,0c0,0,0,0,0,0v1.9c0,0,0,0.1,0,0.1c0,0-0.1,0-0.1,0h-0.2h0h-0.1c0,0,0,0-0.1,0
				s0,0-0.1,0c0,0,0,0-0.1,0c0,0,0,0,0,0v-0.9c0,0,0,0,0,0c0,0,0,0,0,0h-0.3c0,0,0,0-0.1,0c0,0,0,0,0,0v0.8c0,0,0,0,0,0.1
				c0,0,0,0-0.1,0c0,0,0,0-0.1,0s0,0-0.1,0h-0.1h0h-0.4c0,0,0.1,0,0.1-0.1c0,0,0-0.1,0.1-0.1c0,0,0-0.1,0-0.1c0,0,0-0.1,0-0.1v-0.1
				c0-0.1,0-0.2-0.1-0.3c0-0.1-0.1-0.2-0.2-0.2c-0.1,0-0.1-0.1-0.2-0.1s-0.2,0-0.3,0c-0.1,0-0.1,0-0.2,0c-0.1,0-0.1,0-0.2,0
				c-0.1,0-0.1,0-0.2,0.1s-0.1,0-0.1,0.1c0,0,0,0-0.1,0c0,0,0,0,0,0l0,0.2c0,0,0,0,0,0c0,0,0,0,0,0l0.2,0.6h-0.4h0h-0.2v-0.3
				c0-0.1,0-0.2-0.1-0.3c0-0.1-0.1-0.2-0.1-0.3c-0.1-0.1-0.1-0.2-0.3-0.2c-0.1,0-0.2-0.1-0.4-0.1c0,0-0.1,0-0.1,0s-0.1,0-0.2,0
				c0,0,0,0-0.1,0c0,0,0,0,0,0v0.2c0,0,0,0,0.1,0c0,0,0,0,0.1,0s0,0,0.1,0s0,0,0.1,0s0,0,0,0c0.1,0,0.2,0,0.3,0
				c0.1,0,0.1,0.1,0.2,0.1c0,0,0.1,0.1,0.1,0.2s0,0.1,0,0.2l0,0.3h-0.9c0,0,0,0-0.1,0c0,0,0,0,0,0v0.3c0,0,0,0,0,0c0,0,0,0,0.1,0
				h1.4h0h2h0h0.1c0,0,0.1,0,0.1,0s0.1,0,0.1,0c0,0,0.1,0,0.1,0s0.1,0,0.1,0c0.1,0,0.1,0.1,0.2,0.1c0.1,0,0.2,0,0.2,0h0h0h0.1
				c0,0,0.1,0,0.1,0c0.1,0,0.1,0,0.2,0c0.1,0,0.1,0,0.1,0s0.1,0,0.1,0c0,0,0,0,0.1,0c0,0,0,0,0-0.1c0-0.1,0-0.1,0-0.2
				c0-0.1,0-0.1,0-0.2L217.9,46.7C217.9,46.7,217.9,46.7,217.9,46.7C217.9,46.7,217.9,46.7,217.9,46.7z M215.5,48.3c0,0,0,0.1,0,0.2
				c0,0,0,0.1-0.1,0.1s-0.1,0.1-0.1,0.1c0,0-0.1,0-0.1,0.1H215l-0.3-0.7c0.1,0,0.1-0.1,0.2-0.1c0.1,0,0.1,0,0.2,0
				c0.1,0,0.2,0,0.3,0.1C215.5,48.1,215.5,48.1,215.5,48.3L215.5,48.3L215.5,48.3z"/>
			<path class="st0" d="M173.2,46.7h-0.3c0,0,0,0-0.1,0c0,0,0,0,0,0v2.4c0,0,0,0,0,0c0,0,0,0,0.1,0h0.3c0,0,0,0,0.1,0c0,0,0,0,0,0
				L173.2,46.7C173.3,46.7,173.3,46.7,173.2,46.7C173.3,46.7,173.2,46.7,173.2,46.7z"/>
			<path class="st0" d="M211.3,48.5C211.3,48.5,211.3,48.5,211.3,48.5c0-0.2,0-0.3-0.1-0.4c0-0.1-0.1-0.2-0.1-0.3
				c-0.1-0.1-0.1-0.2-0.3-0.2c-0.1,0-0.2-0.1-0.4-0.1c0,0-0.1,0-0.1,0s-0.1,0-0.2,0c0,0,0,0-0.1,0c0,0,0,0,0,0v0.2c0,0,0,0,0.1,0
				c0,0,0,0,0.1,0s0,0,0.1,0s0,0,0.1,0s0,0,0,0c0.1,0,0.2,0,0.3,0c0.1,0,0.1,0.1,0.2,0.1c0,0,0.1,0.1,0.1,0.2s0,0.1,0,0.2l0,0.3H210
				c0,0,0,0-0.1,0c0,0,0,0,0,0v0.3c0,0,0,0,0,0c0,0,0,0,0.1,0h1.2c0,0,0,0,0.1,0c0,0,0,0,0,0c0,0,0-0.1,0-0.1s0-0.1,0-0.1
				c0,0,0-0.1,0-0.1c0,0,0-0.1,0-0.1C211.3,48.6,211.3,48.5,211.3,48.5z"/>
			<path class="st0" d="M200.8,46.7h-0.3c0,0,0,0-0.1,0c0,0,0,0,0,0v1.9c0,0,0,0.1,0,0.1c0,0-0.1,0-0.1,0h-0.2h0H200
				c0,0-0.1,0-0.1,0c-0.1,0-0.1,0-0.1,0v-2c0,0,0,0,0,0c0,0,0,0-0.1,0h-0.3c0,0,0,0-0.1,0c0,0,0,0,0,0v1.9c0,0,0,0,0,0.1
				c0,0,0,0-0.1,0c0,0,0,0-0.1,0s0,0-0.1,0h-0.1h0h0c0,0,0,0-0.1,0c0,0-0.1,0-0.1,0c0,0,0,0-0.1,0c0,0,0,0,0,0v-1c0,0,0,0,0,0
				c0,0,0,0,0,0h-0.3c0,0,0,0-0.1,0c0,0,0,0,0,0v0.9c0,0,0,0,0,0.1c0,0,0,0-0.1,0s0,0-0.1,0s0,0-0.1,0h0c0,0-0.1,0-0.1,0
				c0,0-0.1,0-0.1,0v-0.8c0,0,0,0,0,0c0,0,0,0-0.1,0h-0.3c0,0,0,0-0.1,0c0,0,0,0,0,0v0.8c0,0,0,0,0,0.1c0,0,0,0,0,0c0,0,0,0-0.1,0
				s0,0-0.1,0h-0.1c0,0,0,0-0.1,0s0,0-0.1,0c0,0,0,0-0.1,0c0,0,0,0,0,0v-0.7c0,0,0,0,0,0c0,0,0,0,0,0h-0.3c0,0,0,0-0.1,0
				c0,0,0,0,0,0v0.7c0,0,0,0.1-0.1,0.1s-0.1,0-0.1,0h-0.1h0h-0.2c0,0,0,0,0-0.1c0,0,0,0,0-0.1c0,0,0,0,0-0.1s0,0,0-0.1v0
				c0-0.3-0.1-0.5-0.2-0.6c-0.2-0.2-0.4-0.2-0.8-0.2c-0.1,0-0.1,0-0.2,0s-0.1,0-0.2,0c0,0,0,0,0,0s0,0,0-0.1c0,0,0-0.1,0-0.1
				c0,0,0,0,0-0.1l0.3-0.6c0,0,0,0,0,0c0,0,0,0,0,0s0,0,0,0h-0.3c0,0,0,0-0.1,0c0,0,0,0,0,0l-0.2,0.5c0,0.1-0.1,0.1-0.1,0.2
				c0,0-0.1,0.1-0.1,0.2s0,0.1,0,0.2c0,0,0,0.1,0,0.2c0,0,0,0,0,0c0,0,0,0,0,0s0,0,0,0s0,0,0,0c0,0,0,0,0.1,0h0.7c0.1,0,0.2,0,0.3,0
				s0.1,0,0.2,0.1s0.1,0.1,0.1,0.2c0,0.1,0,0.2,0,0.2c0,0,0,0.1,0,0.1c0,0,0,0.1,0,0.1H194h0h-0.1c-0.1,0-0.1,0-0.1,0
				s-0.1-0.1-0.1-0.1v-1.8c0,0,0,0,0,0c0,0,0,0-0.1,0h-0.3c0,0,0,0-0.1,0c0,0,0,0,0,0v2c0,0.1,0,0.2,0,0.2s0.1,0.1,0.1,0.1
				c0,0,0.1,0.1,0.1,0.1s0.1,0,0.2,0h0.2h0h2.3h0h0.1c0,0,0.1,0,0.1,0c0,0,0.1,0,0.1,0c0,0,0.1,0,0.1,0c0,0,0.1,0,0.1-0.1
				c0.1,0,0.1,0.1,0.2,0.1s0.1,0,0.2,0h0c0.1,0,0.2,0,0.2,0c0.1,0,0.1,0,0.2-0.1c0.1,0,0.1,0.1,0.2,0.1s0.1,0,0.2,0h0
				c0.1,0,0.1,0,0.2,0c0.1,0,0.1,0,0.2-0.1c0.1,0,0.1,0.1,0.2,0.1s0.2,0,0.2,0h0h0h0.1c0,0,0.1,0,0.1,0s0.1,0,0.1,0c0,0,0.1,0,0.1,0
				s0.1,0,0.1,0c0.1,0,0.1,0.1,0.2,0.1c0.1,0,0.2,0,0.2,0h0h0h0.1c0,0,0.1,0,0.1,0c0.1,0,0.1,0,0.2,0c0.1,0,0.1,0,0.1,0s0.1,0,0.1,0
				c0,0,0,0,0.1,0c0,0,0,0,0-0.1c0-0.1,0-0.1,0-0.2c0-0.1,0-0.1,0-0.2V46.7C200.8,46.7,200.8,46.6,200.8,46.7
				C200.8,46.7,200.8,46.7,200.8,46.7z"/>
			<path class="st0" d="M187,46.7h-0.3c0,0,0,0-0.1,0c0,0,0,0,0,0v1.9c0,0,0,0.1,0,0.1c0,0-0.1,0-0.1,0h-0.2h0h-0.1c0,0,0,0-0.1,0
				s0,0-0.1,0c0,0,0,0-0.1,0c0,0,0,0,0,0s0,0,0-0.1s0,0,0-0.1v-0.2c0-0.2-0.1-0.4-0.2-0.5s-0.3-0.2-0.5-0.2c-0.2,0-0.4,0.1-0.5,0.2
				c-0.1,0.1-0.2,0.3-0.2,0.5v0.3c0,0,0,0.1,0,0.1c0,0,0,0,0,0c0,0,0,0-0.1,0s0,0-0.1,0s0,0-0.1,0h-0.1h0h-0.1c0,0,0,0-0.1,0
				c0,0-0.1,0-0.1,0c0,0,0,0-0.1,0c0,0,0,0,0,0v-1c0,0,0,0,0,0c0,0,0,0,0,0h-0.3c0,0,0,0-0.1,0c0,0,0,0,0,0v0.9c0,0,0,0,0,0.1
				c0,0,0,0-0.1,0s0,0-0.1,0s0,0-0.1,0h0c0,0-0.1,0-0.1,0c0,0-0.1,0-0.1,0v-0.8c0,0,0,0,0,0c0,0,0,0-0.1,0h-0.3c0,0,0,0-0.1,0
				c0,0,0,0,0,0v0.8c0,0,0,0,0,0.1c0,0,0,0,0,0c0,0,0,0-0.1,0s0,0-0.1,0h-0.1c0,0,0,0-0.1,0s0,0-0.1,0c0,0,0,0-0.1,0c0,0,0,0,0,0V48
				c0,0,0,0,0,0c0,0,0,0,0,0H182c0,0,0,0-0.1,0c0,0,0,0,0,0v0.7c0,0,0,0.1-0.1,0.1s-0.1,0-0.1,0h-0.1h0h-0.1c-0.1,0-0.1,0-0.1,0
				s-0.1-0.1-0.1-0.1v-1.8c0,0,0,0,0,0c0,0,0,0-0.1,0H181c0,0,0,0-0.1,0c0,0,0,0,0,0v2c0,0.1,0,0.2,0,0.2s0.1,0.1,0.1,0.1
				c0,0,0.1,0.1,0.1,0.1s0.1,0,0.2,0h0.2h0h0.1c0,0,0.1,0,0.1,0c0,0,0.1,0,0.1,0c0,0,0.1,0,0.1,0c0,0,0.1,0,0.1-0.1
				c0.1,0,0.1,0.1,0.2,0.1s0.1,0,0.2,0h0c0.1,0,0.2,0,0.2,0c0.1,0,0.1,0,0.2-0.1c0.1,0,0.1,0.1,0.2,0.1s0.1,0,0.2,0h0
				c0.1,0,0.1,0,0.2,0c0.1,0,0.1,0,0.2-0.1c0.1,0,0.1,0.1,0.2,0.1s0.2,0,0.2,0h0h0h0.1c0.1,0,0.1,0,0.2,0c0.1,0,0.1,0,0.2-0.1
				c0.1,0.1,0.1,0.1,0.2,0.1c0.1,0,0.2,0,0.3,0s0.2,0,0.3,0s0.2-0.1,0.2-0.1c0.1,0,0.1,0.1,0.2,0.1s0.1,0,0.2,0h0h0h0.1
				c0,0,0.1,0,0.1,0c0.1,0,0.1,0,0.2,0c0.1,0,0.1,0,0.1,0s0.1,0,0.1,0c0,0,0,0,0.1,0c0,0,0,0,0-0.1c0-0.1,0-0.1,0-0.2
				c0-0.1,0-0.1,0-0.2L187,46.7C187,46.7,187,46.7,187,46.7C187.1,46.7,187.1,46.7,187,46.7z M185.7,48.5c0,0.1,0,0.2-0.1,0.3
				c-0.1,0.1-0.1,0.1-0.2,0.1c-0.1,0-0.1,0-0.2,0s-0.1-0.1-0.1-0.2c0,0,0-0.1,0-0.2v-0.1c0-0.1,0-0.2,0.1-0.3s0.1-0.1,0.2-0.1
				s0.2,0,0.2,0.1s0.1,0.2,0.1,0.3L185.7,48.5L185.7,48.5z"/>
			<path class="st0" d="M180.3,47.8c-0.1-0.1-0.2-0.1-0.3-0.2s-0.3-0.1-0.5-0.1c-0.1,0-0.1,0-0.1,0c-0.1,0-0.1,0-0.2,0c0,0,0,0,0,0
				c0,0,0,0,0-0.1c0,0,0,0,0-0.1c0,0,0,0,0-0.1l0.3-0.6c0,0,0,0,0,0c0,0,0,0,0,0s0,0,0,0h-0.3c0,0,0,0-0.1,0c0,0,0,0,0,0l-0.2,0.5
				c0,0.1-0.1,0.1-0.1,0.2c0,0-0.1,0.1-0.1,0.2s0,0.1,0,0.2c0,0,0,0.1,0,0.2c0,0,0,0,0,0c0,0,0,0,0,0s0,0,0,0s0,0,0,0c0,0,0,0,0.1,0
				h0.7c0.1,0,0.2,0,0.3,0s0.1,0,0.2,0.1s0.1,0.1,0.1,0.2c0,0.1,0,0.2,0,0.2c0,0,0,0.1,0,0.1s0,0.1,0,0.1c0,0-0.1,0-0.1,0
				s-0.1,0-0.1,0c-0.1,0-0.1,0-0.1,0c0,0-0.1,0-0.1,0h-1.2h0h-0.3v-0.9c0,0,0,0,0,0c0,0,0,0-0.1,0h-0.3c0,0,0,0-0.1,0c0,0,0,0,0,0v1
				c0,0.1,0,0.2,0,0.3c0,0.1,0,0.2,0,0.3c-0.1,0-0.1,0-0.1,0c0,0-0.1,0-0.1,0c-0.1,0-0.3,0-0.4-0.1s-0.2-0.1-0.2-0.2
				s-0.1-0.2-0.1-0.2s0-0.2,0-0.3c0,0,0-0.1,0-0.1c0,0,0-0.1,0-0.2s0-0.1-0.1-0.1h-0.2c0,0,0,0-0.1,0c0,0,0,0,0,0c0,0,0,0.1,0,0.1
				c0,0,0,0.1,0,0.1s0,0.1,0,0.1s0,0.1,0,0.1c0,0.4,0.1,0.6,0.3,0.8c0.2,0.2,0.4,0.2,0.8,0.2c0.1,0,0.2,0,0.3,0s0.2,0,0.3,0
				c0.1,0,0.1,0,0.1-0.1c0-0.1,0-0.1,0-0.2c0-0.1,0-0.2,0-0.2h0.3h0h1.3c0.1,0,0.1,0,0.2,0s0.1,0,0.2,0s0.1,0,0.2,0s0.1,0,0.1,0
				c0.1,0,0.1,0,0.1-0.1c0,0,0-0.1,0-0.1c0,0,0-0.1,0-0.1c0,0,0-0.1,0-0.1c0,0,0-0.1,0-0.1v-0.1c0-0.2,0-0.3-0.1-0.4
				C180.4,48,180.4,47.9,180.3,47.8z"/>
			<path class="st0" d="M192.8,47.8h-0.3c0,0,0,0-0.1,0c0,0,0,0,0,0v1c0,0.1,0,0.2,0,0.3c0,0.1,0,0.2,0,0.3c-0.1,0-0.1,0-0.1,0
				c0,0-0.1,0-0.1,0c-0.1,0-0.3,0-0.4-0.1s-0.2-0.1-0.2-0.2s-0.1-0.2-0.1-0.2s0-0.2,0-0.3c0,0,0-0.1,0-0.1c0,0,0-0.1,0-0.2
				s0-0.1-0.1-0.1h-0.2c0,0,0,0-0.1,0c0,0,0,0,0,0c0,0,0,0.1,0,0.1c0,0,0,0.1,0,0.1s0,0.1,0,0.1s0,0.1,0,0.1c0,0.4,0.1,0.6,0.3,0.8
				c0.2,0.2,0.4,0.2,0.8,0.2c0.1,0,0.2,0,0.3,0s0.2,0,0.3,0c0.1,0,0.1,0,0.1-0.1c0-0.1,0-0.2,0-0.3s0-0.2,0-0.3L192.8,47.8
				C192.8,47.8,192.8,47.8,192.8,47.8C192.8,47.8,192.8,47.8,192.8,47.8z"/>
			<path class="st0" d="M175.1,47.6C175.1,47.6,175,47.6,175.1,47.6c-0.1,0-0.2,0-0.2,0c0,0-0.1,0-0.1,0s-0.1,0-0.1,0
				c-0.3,0-0.5,0.1-0.6,0.2s-0.2,0.3-0.2,0.6v0.1c0,0.2,0.1,0.4,0.2,0.5c0.1,0.1,0.3,0.2,0.5,0.2c0,0,0,0,0.1,0c0,0,0.1,0,0.1,0
				c0,0,0.1,0,0.1,0c0,0,0,0,0.1,0v0.2c0,0.1,0,0.1,0,0.2c0,0-0.1,0.1-0.1,0.1c0,0-0.1,0-0.2,0s-0.1,0-0.2,0h-0.3c0,0-0.1,0-0.1,0.1
				v0.2c0,0,0,0,0,0c0,0,0,0,0,0c0,0,0,0,0.1,0c0,0,0.1,0,0.1,0s0.1,0,0.1,0s0.1,0,0.1,0c0.1,0,0.2,0,0.3,0c0.1,0,0.2-0.1,0.3-0.1
				s0.1-0.1,0.2-0.2s0.1-0.2,0.1-0.4L175.1,47.6C175.2,47.7,175.2,47.7,175.1,47.6C175.1,47.7,175.1,47.6,175.1,47.6z M174.7,48.7
				C174.7,48.7,174.7,48.8,174.7,48.7c-0.1,0.1-0.2,0.1-0.2,0.1c-0.1,0-0.2,0-0.3-0.1c-0.1-0.1-0.1-0.2-0.1-0.3v0
				c0-0.1,0-0.2,0.1-0.3s0.2-0.1,0.3-0.1c0.1,0,0.1,0,0.2,0L174.7,48.7L174.7,48.7z"/>
			<path class="st0" d="M188,46.7h-0.3c0,0,0,0-0.1,0c0,0,0,0,0,0v2.4c0,0,0,0,0,0c0,0,0,0,0.1,0h0.3c0,0,0,0,0.1,0c0,0,0,0,0,0
				L188,46.7C188,46.7,188,46.7,188,46.7C188,46.7,188,46.7,188,46.7z"/>
			<path class="st0" d="M189.8,47.6C189.8,47.6,189.8,47.6,189.8,47.6c-0.1,0-0.2,0-0.2,0c0,0-0.1,0-0.1,0s-0.1,0-0.1,0
				c-0.3,0-0.5,0.1-0.6,0.2s-0.2,0.3-0.2,0.6v0.1c0,0.2,0.1,0.4,0.2,0.5c0.1,0.1,0.3,0.2,0.5,0.2c0,0,0,0,0.1,0c0,0,0.1,0,0.1,0
				c0,0,0.1,0,0.1,0c0,0,0,0,0.1,0v0.2c0,0.1,0,0.1,0,0.2c0,0-0.1,0.1-0.1,0.1c0,0-0.1,0-0.2,0s-0.1,0-0.2,0h-0.3c0,0-0.1,0-0.1,0.1
				v0.2c0,0,0,0,0,0c0,0,0,0,0,0c0,0,0,0,0.1,0c0,0,0.1,0,0.1,0s0.1,0,0.1,0s0.1,0,0.1,0c0.1,0,0.2,0,0.3,0c0.1,0,0.2-0.1,0.3-0.1
				s0.1-0.1,0.2-0.2s0.1-0.2,0.1-0.4L189.8,47.6C189.9,47.7,189.9,47.7,189.8,47.6C189.9,47.7,189.9,47.6,189.8,47.6z M189.5,48.7
				C189.5,48.7,189.5,48.8,189.5,48.7c-0.1,0.1-0.2,0.1-0.2,0.1c-0.1,0-0.2,0-0.3-0.1c-0.1-0.1-0.1-0.2-0.1-0.3v0
				c0-0.1,0-0.2,0.1-0.3s0.2-0.1,0.3-0.1c0.1,0,0.1,0,0.2,0L189.5,48.7L189.5,48.7z"/>
		</g>
		<g>
			<g>
				<defs>
					<path id="SVGID_1_" d="M152.1,46.7c-0.1,0-0.2,0-0.3,0.1c0,0,0,0,0,0c0,0,0,0,0,0v0.3c0,0,0,0,0,0c0,0,0,0,0,0h0
						c0.1,0,0.2,0,0.3,0s0.2,0,0.3,0c0.1,0,0.2,0,0.3,0c0.1,0,0.1,0.1,0.1,0.2c0,0,0,0.1,0,0.1c0,0,0,0-0.1,0.1c0,0-0.1,0-0.1,0.1
						c0,0-0.1,0.1-0.2,0.1l-0.3,0.2c-0.1,0.1-0.2,0.2-0.3,0.3c-0.1,0.1-0.1,0.3-0.1,0.5v0.3c0,0,0,0,0,0c0,0,0,0,0.1,0h1.5
						c0,0,0,0,0.1,0c0,0,0,0,0,0v-0.3c0,0,0,0,0,0c0,0,0,0-0.1,0h-1v0c0-0.1,0-0.1,0-0.2s0.1-0.1,0.1-0.1c0,0,0.1-0.1,0.1-0.1
						s0.1-0.1,0.2-0.1l0.3-0.2c0.1-0.1,0.2-0.2,0.3-0.3c0.1-0.1,0.1-0.2,0.1-0.3c0-0.2-0.1-0.4-0.2-0.5c-0.1-0.1-0.3-0.2-0.6-0.2
						C152.3,46.7,152.2,46.7,152.1,46.7 M154.5,48.7c0,0-0.1,0-0.1-0.1s-0.1-0.1-0.1-0.2c0-0.1,0-0.2,0-0.3v-0.3c0-0.1,0-0.2,0-0.3
						c0-0.1,0-0.2,0.1-0.2s0.1-0.1,0.1-0.1c0,0,0.1,0,0.1,0s0.1,0,0.1,0c0,0,0.1,0,0.1,0.1s0.1,0.1,0.1,0.2c0,0.1,0,0.2,0,0.3v0.3
						c0,0.1,0,0.2,0,0.3c0,0.1,0,0.2-0.1,0.2c0,0-0.1,0.1-0.1,0.1c0,0-0.1,0-0.1,0S154.5,48.7,154.5,48.7 M154.2,46.8
						c-0.1,0-0.2,0.1-0.3,0.2s-0.1,0.2-0.2,0.3c0,0.1-0.1,0.3-0.1,0.5v0.3c0,0.2,0,0.4,0.1,0.5s0.1,0.2,0.2,0.3
						c0.1,0.1,0.2,0.2,0.3,0.2c0.1,0,0.2,0.1,0.4,0.1s0.3,0,0.4-0.1c0.1,0,0.2-0.1,0.3-0.2s0.1-0.2,0.2-0.3s0.1-0.3,0.1-0.5v-0.3
						c0-0.2,0-0.4-0.1-0.5c0-0.1-0.1-0.3-0.2-0.3c-0.1-0.1-0.2-0.2-0.3-0.2s-0.2-0.1-0.4-0.1S154.3,46.7,154.2,46.8 M156.3,46.7
						c-0.1,0-0.2,0-0.3,0.1c0,0,0,0,0,0c0,0,0,0,0,0v0.3c0,0,0,0,0,0c0,0,0,0,0,0h0c0.1,0,0.2,0,0.3,0c0.1,0,0.2,0,0.3,0
						c0.1,0,0.2,0,0.3,0s0.1,0.1,0.1,0.2c0,0,0,0.1,0,0.1c0,0,0,0-0.1,0.1c0,0-0.1,0-0.1,0.1c0,0-0.1,0.1-0.2,0.1l-0.3,0.2
						c-0.1,0.1-0.2,0.2-0.3,0.3c-0.1,0.1-0.1,0.3-0.1,0.5v0.3c0,0,0,0,0,0c0,0,0,0,0.1,0h1.5c0,0,0,0,0.1,0c0,0,0,0,0,0v-0.3
						c0,0,0,0,0,0c0,0,0,0-0.1,0h-1v0c0-0.1,0-0.1,0-0.2s0.1-0.1,0.1-0.1c0,0,0.1-0.1,0.1-0.1s0.1-0.1,0.2-0.1l0.3-0.2
						c0.1-0.1,0.2-0.2,0.3-0.3c0.1-0.1,0.1-0.2,0.1-0.3c0-0.2-0.1-0.4-0.2-0.5c-0.1-0.1-0.3-0.2-0.6-0.2
						C156.6,46.7,156.5,46.7,156.3,46.7 M158.7,48.7c0,0-0.1,0-0.1-0.1s-0.1-0.1-0.1-0.2c0-0.1,0-0.2,0-0.3v-0.3c0-0.1,0-0.2,0-0.3
						c0-0.1,0-0.2,0.1-0.2c0,0,0.1-0.1,0.1-0.1c0,0,0.1,0,0.1,0s0.1,0,0.1,0c0,0,0.1,0,0.1,0.1s0.1,0.1,0.1,0.2c0,0.1,0,0.2,0,0.3
						v0.3c0,0.1,0,0.2,0,0.3c0,0.1,0,0.2-0.1,0.2c0,0-0.1,0.1-0.1,0.1c0,0-0.1,0-0.1,0C158.8,48.7,158.8,48.7,158.7,48.7
						 M158.5,46.8c-0.1,0-0.2,0.1-0.3,0.2s-0.1,0.2-0.2,0.3c0,0.1-0.1,0.3-0.1,0.5v0.3c0,0.2,0,0.4,0.1,0.5s0.1,0.2,0.2,0.3
						c0.1,0.1,0.2,0.2,0.3,0.2c0.1,0,0.2,0.1,0.4,0.1s0.3,0,0.4-0.1s0.2-0.1,0.3-0.2s0.1-0.2,0.2-0.3s0.1-0.3,0.1-0.5v-0.3
						c0-0.2,0-0.4-0.1-0.5c0-0.1-0.1-0.3-0.2-0.3c-0.1-0.1-0.2-0.2-0.3-0.2s-0.2-0.1-0.4-0.1C158.7,46.7,158.6,46.7,158.5,46.8"/>
				</defs>
				<use xlink:href="#SVGID_1_"  style="overflow:visible;fill:#FFFFFF;"/>
				<clipPath id="SVGID_2_">
					<use xlink:href="#SVGID_1_"  style="overflow:visible;"/>
				</clipPath>
			</g>
		</g>
		<rect x="151.6" y="44.2" class="st0" width="67.5" height="0.4"/>
	</g>
</g>
</svg>
